<?xml version="1.0" standalone="no"?>
  <!DOCTYPE svg PUBLIC "-//W3C//DTD SVG 1.1//EN" "http://www.w3.org/Graphics/SVG/1.1/DTD/svg11.dtd" >
  <svg>
  <metadata>
  Created by font-carrier
  </metadata>
  <defs>
  <font id="Molot" horiz-adv-x="921" vert-adv-y="921" >
    <font-face
      
      font-family="Molot"
      
      font-weight="400"
      
      font-stretch="normal"
      
      units-per-em="1000"
      
      ascent="945"
      
      descent="-200"
      
    />
      <missing-glyph />

      

      
      <glyph glyph-name="uni21" unicode="&#x21;" d="M52 175L249 175L249 0L52 0L52 175M63 248L30 613L30 700L270 700L270 613L237 248L63 248Z"  horiz-adv-x="300" vert-adv-y="1000"  />

      
      <glyph glyph-name="uni23" unicode="&#x23;" d="M301 419L301 280L439 280L439 419L301 419M159 0L159 139L20 139L20 280L159 280L159 419L20 419L20 560L159 560L159 700L301 700L301 560L439 560L439 700L581 700L581 560L720 560L720 419L581 419L581 280L720 280L720 139L581 139L581 0L439 0L439 139L301 139L301 0L159 0Z"  horiz-adv-x="740" vert-adv-y="1000"  />

      
      <glyph glyph-name="uni24" unicode="&#x24;" d="M79 348Q44 371 32 396.50Q20 422 20 466L20 612Q20 650 44.50 675Q69 700 107 700L186 700L186 775L322 775L322 700L488 700L488 613L453 524L239 524L239 492L429 365Q464 342 476 316Q488 290 488 246L488 87Q488 49 463.50 24.50Q439 0 400 0L322 0L322-74L186-74L186 0L20 0L20 175L269 175L269 221L79 348Z"  horiz-adv-x="508" vert-adv-y="1000"  />

      
      <glyph glyph-name="uni26" unicode="&#x26;" d="M305 271L248 271L248 175L305 175L305 271M117 0Q79 0 54.50 24.50Q30 49 30 88L30 265Q30 302 56 325.50Q82 349 119 349L119 368Q82 368 56 391.50Q30 415 30 453L30 612Q30 650 54.50 675Q79 700 117 700L524 700L524 613L490 525L248 525L248 446L584 446L584 271L524 271L524 88Q524 49 499.50 24.50Q475 0 436 0L117 0Z"  horiz-adv-x="594" vert-adv-y="1000"  />

      
      <glyph glyph-name="uni28" unicode="&#x28;" d="M251-53L251-186L239-186Q133-186 86.50-138Q40-90 40 16L40 683Q40 789 86.50 836.50Q133 884 239 884L251 884L251 751L239 751Q206 751 193.50 735.50Q181 720 181 685L181 13Q181-22 193.50-37.50Q206-53 239-53L251-53Z"  horiz-adv-x="251" vert-adv-y="1000"  />

      
      <glyph glyph-name="uni29" unicode="&#x29;" d="M0-53L12-53Q45-53 57.50-37.50Q70-22 70 13L70 685Q70 720 57.50 735.50Q45 751 12 751L0 751L0 884L12 884Q118 884 164.50 836.50Q211 789 211 683L211 16Q211-90 164.50-138Q118-186 12-186L0-186L0-53Z"  horiz-adv-x="251" vert-adv-y="1000"  />

      
      <glyph glyph-name="uni2a" unicode="&#x2a;" d="M174 576L174 684L277 684L277 576L379 610L411 513L308 479L371 392L289 332L226 419L162 332L80 392L143 479L40 513L72 610L174 576Z"  horiz-adv-x="451" vert-adv-y="1000"  />

      
      <glyph glyph-name="uni2b" unicode="&#x2b;" d="M20 420L196 420L196 596L337 596L337 420L514 420L514 279L337 279L337 102L196 102L196 279L20 279L20 420Z"  horiz-adv-x="534" vert-adv-y="1000"  />

      
      <glyph glyph-name="uni2c" unicode="&#x2c;" d="M237 31L196-75L117-75L117 0L40 0L40 175L237 175L237 31Z"  horiz-adv-x="277" vert-adv-y="1000"  />

      
      <glyph glyph-name="uni2d" unicode="&#x2d;" d="M20 420L514 420L514 279L20 279L20 420Z"  horiz-adv-x="534" vert-adv-y="1000"  />

      
      <glyph glyph-name="uni2e" unicode="&#x2e;" d="M40 175L237 175L237 0L40 0L40 175Z"  horiz-adv-x="277" vert-adv-y="1000"  />

      
      <glyph glyph-name="uni2f" unicode="&#x2f;" d="M525 662L141 0L0 0L0 38L385 700L525 700L525 662Z"  horiz-adv-x="525" vert-adv-y="1000"  />

      
      <glyph glyph-name="uni30" unicode="&#x30;" d="M315 524L258 524L258 174L315 174L315 524M446 0L127 0Q89 0 64.50 24.50Q40 49 40 87L40 613Q40 651 64.50 675.50Q89 700 127 700L446 700Q484 700 509 675.50Q534 651 534 613L534 87Q534 49 509.50 24.50Q485 0 446 0Z"  horiz-adv-x="574" vert-adv-y="1000"  />

      
      <glyph glyph-name="uni31" unicode="&#x31;" d="M259 0L40 0L40 657L150 700L259 700L259 0Z"  horiz-adv-x="299" vert-adv-y="1000"  />

      
      <glyph glyph-name="uni32" unicode="&#x32;" d="M455 334L239 212L239 174L514 174L514 0L20 0L20 232Q20 277 32 303Q44 329 79 351L296 487L296 524L55 524L20 613L20 700L427 700Q465 700 489.50 675.50Q514 651 514 613L514 453Q514 407 502.50 380.50Q491 354 455 334Z"  horiz-adv-x="534" vert-adv-y="1000"  />

      
      <glyph glyph-name="uni33" unicode="&#x33;" d="M514 329L514 87Q514 49 489.50 24.50Q465 0 427 0L20 0L20 174L296 174L296 271L138 271L138 380L254 487L254 524L55 524L20 613L20 700L510 700L510 533L425 420Q467 417 490.50 394Q514 371 514 329Z"  horiz-adv-x="554" vert-adv-y="1000"  />

      
      <glyph glyph-name="uni34" unicode="&#x34;" d="M143 700L337 700L337 613L243 344L243 307L329 307L329 434L548 434L548 0L329 0L329 132L20 132L20 346L143 700Z"  horiz-adv-x="588" vert-adv-y="1000"  />

      
      <glyph glyph-name="uni35" unicode="&#x35;" d="M40 700L530 700L530 613L496 524L259 524L259 445L447 445Q485 445 509.50 420.50Q534 396 534 358L534 87Q534 49 509.50 24.50Q485 0 447 0L40 0L40 174L316 174L316 271L40 271L40 700Z"  horiz-adv-x="564" vert-adv-y="1000"  />

      
      <glyph glyph-name="uni36" unicode="&#x36;" d="M315 174L315 271L258 271L258 174L315 174M446 445Q485 445 509.50 420.50Q534 396 534 358L534 87Q534 49 509.50 24.50Q485 0 446 0L127 0Q89 0 64.50 24.50Q40 49 40 87L40 613Q40 651 64.50 675.50Q89 700 127 700L525 700L525 613L491 524L258 524L258 445L446 445Z"  horiz-adv-x="564" vert-adv-y="1000"  />

      
      <glyph glyph-name="uni37" unicode="&#x37;" d="M216 500L216 524L10 524L10 700L440 700L440 520L271 0L68 0L68 56L216 500Z"  horiz-adv-x="460" vert-adv-y="1000"  />

      
      <glyph glyph-name="uni38" unicode="&#x38;" d="M259 271L259 174L316 174L316 271L259 271M259 524L259 445L316 445L316 524L259 524M128 0Q89 0 64.50 24.50Q40 49 40 87L40 264Q40 301 66.50 324.50Q93 348 130 348L130 368Q93 368 66.50 391.50Q40 415 40 452L40 613Q40 651 65 675.50Q90 700 128 700L447 700Q485 700 509.50 675.50Q534 651 534 613L534 452Q534 415 508 391.50Q482 368 445 368L445 348Q482 348 508 324.50Q534 301 534 264L534 87Q534 49 509.50 24.50Q485 0 447 0L128 0Z"  horiz-adv-x="574" vert-adv-y="1000"  />

      
      <glyph glyph-name="uni39" unicode="&#x39;" d="M248 524L248 428L305 428L305 524L248 524M117 253Q79 253 54.50 277.50Q30 302 30 341L30 613Q30 651 54.50 675.50Q79 700 117 700L436 700Q475 700 499.50 675.50Q524 651 524 613L524 87Q524 49 499.50 24.50Q475 0 436 0L55 0L55 174L305 174L305 253L117 253Z"  horiz-adv-x="564" vert-adv-y="1000"  />

      
      <glyph glyph-name="uni3a" unicode="&#x3a;" d="M40 175L237 175L237 0L40 0L40 175M40 700L237 700L237 524L40 524L40 700Z"  horiz-adv-x="277" vert-adv-y="1000"  />

      
      <glyph glyph-name="uni3b" unicode="&#x3b;" d="M237 31L196-75L116-75L116 0L40 0L40 175L237 175L237 31M40 700L237 700L237 524L40 524L40 700Z"  horiz-adv-x="277" vert-adv-y="1000"  />

      
      <glyph glyph-name="uni3c" unicode="&#x3c;" d="M366 501L176 335L366 169L366 122L223 122L20 303L20 366L223 547L366 547L366 501Z"  horiz-adv-x="406" vert-adv-y="1000"  />

      
      <glyph glyph-name="uni3d" unicode="&#x3d;" d="M40 298L534 298L534 156L40 156L40 298M40 542L534 542L534 401L40 401L40 542Z"  horiz-adv-x="574" vert-adv-y="1000"  />

      
      <glyph glyph-name="uni3e" unicode="&#x3e;" d="M40 501L40 547L184 547L387 366L387 303L184 122L40 122L40 169L231 335L40 501Z"  horiz-adv-x="407" vert-adv-y="1000"  />

      
      <glyph glyph-name="uni3f" unicode="&#x3f;" d="M445 356L337 295L337 248L140 248L140 306Q140 350 152 375Q164 400 199 425L285 487L285 524L44 524L10 613L10 700L416 700Q455 700 479.50 675.50Q504 651 504 613L504 475Q504 430 492 403.50Q480 377 445 356M140 175L337 175L337 0L140 0L140 175Z"  horiz-adv-x="524" vert-adv-y="1000"  />

      
      <glyph glyph-name="uni40" unicode="&#x40;" d="M398 374L398 326L529 326L529 374L398 374M529 567L182 567L182 133L671 133L671 0L126 0Q86 0 63 21.50Q40 43 40 105L40 594Q40 656 63 678Q86 700 126 700L584 700Q625 700 648 678Q671 656 671 594L671 193L321 193Q286 193 273 204Q260 215 260 250L260 450Q260 484 273 495Q286 506 321 506L529 506L529 567Z"  horiz-adv-x="711" vert-adv-y="1000"  />

      
      <glyph glyph-name="uni41" unicode="&#x41;" d="M268 316L332 316L312 524L288 524L268 316M118 700L482 700L580 87L580 0L361 0L348 141L252 141L238 0L20 0L20 87L118 700Z"  horiz-adv-x="600" vert-adv-y="1000"  />

      
      <glyph glyph-name="uni42" unicode="&#x42;" d="M259 271L259 175L346 175L346 271L259 271M346 446L346 524L259 524L259 446L346 446M477 0L40 0L40 700L477 700Q516 700 540.50 675.50Q565 651 565 613L565 452Q565 415 538.50 391.50Q512 368 475 368L475 349Q512 349 538.50 325.50Q565 302 565 264L565 87Q565 49 540.50 24.50Q516 0 477 0Z"  horiz-adv-x="595" vert-adv-y="1000"  />

      
      <glyph glyph-name="uni43" unicode="&#x43;" d="M128 700L508 700L508 613L474 524L259 524L259 175L508 175L508 0L128 0Q89 0 64.50 24.50Q40 49 40 87L40 613Q40 651 64.50 675.50Q89 700 128 700Z"  horiz-adv-x="528" vert-adv-y="1000"  />

      
      <glyph glyph-name="uni44" unicode="&#x44;" d="M258 524L258 175L346 175L346 524L258 524M477 0L40 0L40 700L477 700Q515 700 539.50 675.50Q564 651 564 613L564 87Q564 49 539.50 24.50Q515 0 477 0Z"  horiz-adv-x="604" vert-adv-y="1000"  />

      
      <glyph glyph-name="uni45" unicode="&#x45;" d="M508 0L40 0L40 700L508 700L508 613L473 524L258 524L258 446L473 446L473 271L258 271L258 175L508 175L508 0Z"  horiz-adv-x="528" vert-adv-y="1000"  />

      
      <glyph glyph-name="uni46" unicode="&#x46;" d="M259 236L259 0L40 0L40 700L508 700L508 613L474 524L259 524L259 411L474 411L474 236L259 236Z"  horiz-adv-x="518" vert-adv-y="1000"  />

      
      <glyph glyph-name="uni47" unicode="&#x47;" d="M128 700L561 700L561 613L526 524L259 524L259 175L346 175L346 410L565 410L565 0L128 0Q89 0 64.50 24.50Q40 49 40 87L40 613Q40 651 64.50 675.50Q89 700 128 700Z"  horiz-adv-x="605" vert-adv-y="1000"  />

      
      <glyph glyph-name="uni48" unicode="&#x48;" d="M258 446L346 446L346 700L564 700L564 0L346 0L346 271L258 271L258 0L40 0L40 700L258 700L258 446Z"  horiz-adv-x="604" vert-adv-y="1000"  />

      
      <glyph glyph-name="uni49" unicode="&#x49;" d="M258 0L40 0L40 700L258 700L258 0Z"  horiz-adv-x="298" vert-adv-y="1000"  />

      
      <glyph glyph-name="uni4a" unicode="&#x4a;" d="M268 0L10 0L10 175L137 175L137 700L355 700L355 87Q355 49 330.50 24.50Q306 0 268 0Z"  horiz-adv-x="395" vert-adv-y="1000"  />

      
      <glyph glyph-name="uni4b" unicode="&#x4b;" d="M298 446L350 700L558 700L558 613L477 370L575 87L575 0L357 0L298 271L258 271L258 0L40 0L40 700L258 700L258 446L298 446Z"  horiz-adv-x="595" vert-adv-y="1000"  />

      
      <glyph glyph-name="uni4c" unicode="&#x4c;" d="M40 0L40 700L258 700L258 175L478 175L478 0L40 0Z"  horiz-adv-x="488" vert-adv-y="1000"  />

      
      <glyph glyph-name="uni4d" unicode="&#x4d;" d="M305 0L251 336L234 336L234 0L20 0L20 87L92 700L336 700L389 424L404 424L457 700L702 700L773 87L773 0L560 0L560 336L542 336L488 0L305 0Z"  horiz-adv-x="793" vert-adv-y="1000"  />

      
      <glyph glyph-name="uni4e" unicode="&#x4e;" d="M374 376L392 376L363 613L363 700L565 700L565 0L333 0L230 323L213 323L241 87L241 0L40 0L40 700L272 700L374 376Z"  horiz-adv-x="605" vert-adv-y="1000"  />

      
      <glyph glyph-name="uni4f" unicode="&#x4f;" d="M346 524L259 524L259 175L346 175L346 524M477 0L128 0Q89 0 64.50 24.50Q40 49 40 87L40 613Q40 651 64.50 675.50Q89 700 128 700L477 700Q516 700 540.50 675.50Q565 651 565 613L565 87Q565 49 540.50 24.50Q516 0 477 0Z"  horiz-adv-x="605" vert-adv-y="1000"  />

      
      <glyph glyph-name="uni50" unicode="&#x50;" d="M259 524L259 393L346 393L346 524L259 524M477 218L259 218L259 0L40 0L40 700L477 700Q516 700 540.50 675.50Q565 651 565 613L565 306Q565 268 540.50 243Q516 218 477 218Z"  horiz-adv-x="595" vert-adv-y="1000"  />

      
      <glyph glyph-name="uni51" unicode="&#x51;" d="M346 524L259 524L259 175L346 175L346 524M477 0L386 0L430-68L430-155L264-155L231 0L128 0Q89 0 64.50 24.50Q40 49 40 87L40 613Q40 651 64.50 675.50Q89 700 128 700L477 700Q516 700 540.50 675.50Q565 651 565 613L565 87Q565 49 540.50 24.50Q516 0 477 0Z"  horiz-adv-x="605" vert-adv-y="1000"  />

      
      <glyph glyph-name="uni52" unicode="&#x52;" d="M346 524L259 524L259 393L346 393L346 524M40 700L478 700Q516 700 540.50 675.50Q565 651 565 613L565 338Q565 313 548 289.50Q531 266 507 259L576 87L576 0L362 0L303 218L259 218L259 0L40 0L40 700Z"  horiz-adv-x="596" vert-adv-y="1000"  />

      
      <glyph glyph-name="uni53" unicode="&#x53;" d="M79 347Q44 371 32 396.50Q20 422 20 466L20 613Q20 651 44.50 675.50Q69 700 108 700L488 700L488 614L454 524L239 524L239 492L429 365Q464 342 476 316Q488 290 488 246L488 87Q488 49 463.50 24.50Q439 0 401 0L20 0L20 175L269 175L269 221L79 347Z"  horiz-adv-x="508" vert-adv-y="1000"  />

      
      <glyph glyph-name="uni54" unicode="&#x54;" d="M141 524L10 524L10 700L500 700L500 613L465 524L360 524L360 0L141 0L141 524Z"  horiz-adv-x="510" vert-adv-y="1000"  />

      
      <glyph glyph-name="uni55" unicode="&#x55;" d="M346 700L565 700L565 0L128 0Q89 0 64.50 24.50Q40 49 40 87L40 700L259 700L259 175L346 175L346 700Z"  horiz-adv-x="605" vert-adv-y="1000"  />

      
      <glyph glyph-name="uni56" unicode="&#x56;" d="M121 0L10 643L10 700L228 700L273 175L298 175L343 700L561 700L561 643L450 0L121 0Z"  horiz-adv-x="571" vert-adv-y="1000"  />

      
      <glyph glyph-name="uni57" unicode="&#x57;" d="M305 700L488 700L542 363L560 363L560 700L773 700L773 613L702 0L457 0L404 275L389 275L336 0L92 0L20 613L20 700L234 700L234 363L251 363L305 700Z"  horiz-adv-x="793" vert-adv-y="1000"  />

      
      <glyph glyph-name="uni58" unicode="&#x58;" d="M299 446L345 700L553 700L553 606L472 370L570 83L570 0L351 0L299 271L281 271L229 0L10 0L10 83L108 370L27 606L27 700L235 700L281 446L299 446Z"  horiz-adv-x="580" vert-adv-y="1000"  />

      
      <glyph glyph-name="uni59" unicode="&#x59;" d="M181 191L10 613L10 700L229 700L282 428L298 428L352 700L570 700L570 613L399 191L399 0L181 0L181 191Z"  horiz-adv-x="580" vert-adv-y="1000"  />

      
      <glyph glyph-name="uni5a" unicode="&#x5a;" d="M20 0L20 179L256 500L256 524L54 524L20 613L20 700L506 700L506 520L269 199L269 175L515 175L515 0L20 0Z"  horiz-adv-x="535" vert-adv-y="1000"  />

      
      <glyph glyph-name="uni5b" unicode="&#x5b;" d="M181 751L181-53L251-53L251-186L40-186L40 884L251 884L251 751L181 751Z"  horiz-adv-x="251" vert-adv-y="1000"  />

      
      <glyph glyph-name="uni5c" unicode="&#x5c;" d="M0 662L0 700L141 700L525 38L525 0L385 0L0 662Z"  horiz-adv-x="525" vert-adv-y="1000"  />

      
      <glyph glyph-name="uni5d" unicode="&#x5d;" d="M70 751L0 751L0 884L212 884L212-186L0-186L0-53L70-53L70 751Z"  horiz-adv-x="252" vert-adv-y="1000"  />

      
      <glyph glyph-name="uni5f" unicode="&#x5f;" d="M0-59L493-59L493-200L0-200L0-59Z"  horiz-adv-x="493" vert-adv-y="1000"  />

      
      <glyph glyph-name="uni61" unicode="&#x61;" d="M268 316L332 316L312 524L288 524L268 316M118 700L482 700L580 87L580 0L361 0L348 141L252 141L238 0L20 0L20 87L118 700Z"  horiz-adv-x="600" vert-adv-y="1000"  />

      
      <glyph glyph-name="uni62" unicode="&#x62;" d="M259 271L259 175L346 175L346 271L259 271M346 446L346 524L259 524L259 446L346 446M477 0L40 0L40 700L477 700Q516 700 540.50 675.50Q565 651 565 613L565 452Q565 415 538.50 391.50Q512 368 475 368L475 349Q512 349 538.50 325.50Q565 302 565 264L565 87Q565 49 540.50 24.50Q516 0 477 0Z"  horiz-adv-x="595" vert-adv-y="1000"  />

      
      <glyph glyph-name="uni63" unicode="&#x63;" d="M128 700L508 700L508 613L474 524L259 524L259 175L508 175L508 0L128 0Q89 0 64.50 24.50Q40 49 40 87L40 613Q40 651 64.50 675.50Q89 700 128 700Z"  horiz-adv-x="528" vert-adv-y="1000"  />

      
      <glyph glyph-name="uni64" unicode="&#x64;" d="M258 524L258 175L346 175L346 524L258 524M477 0L40 0L40 700L477 700Q515 700 539.50 675.50Q564 651 564 613L564 87Q564 49 539.50 24.50Q515 0 477 0Z"  horiz-adv-x="604" vert-adv-y="1000"  />

      
      <glyph glyph-name="uni65" unicode="&#x65;" d="M508 0L40 0L40 700L508 700L508 613L473 524L258 524L258 446L473 446L473 271L258 271L258 175L508 175L508 0Z"  horiz-adv-x="528" vert-adv-y="1000"  />

      
      <glyph glyph-name="uni66" unicode="&#x66;" d="M259 236L259 0L40 0L40 700L508 700L508 613L474 524L259 524L259 411L474 411L474 236L259 236Z"  horiz-adv-x="518" vert-adv-y="1000"  />

      
      <glyph glyph-name="uni67" unicode="&#x67;" d="M128 700L561 700L561 613L526 524L259 524L259 175L346 175L346 410L565 410L565 0L128 0Q89 0 64.50 24.50Q40 49 40 87L40 613Q40 651 64.50 675.50Q89 700 128 700Z"  horiz-adv-x="605" vert-adv-y="1000"  />

      
      <glyph glyph-name="uni68" unicode="&#x68;" d="M258 446L346 446L346 700L564 700L564 0L346 0L346 271L258 271L258 0L40 0L40 700L258 700L258 446Z"  horiz-adv-x="604" vert-adv-y="1000"  />

      
      <glyph glyph-name="uni69" unicode="&#x69;" d="M258 0L40 0L40 700L258 700L258 0Z"  horiz-adv-x="298" vert-adv-y="1000"  />

      
      <glyph glyph-name="uni6a" unicode="&#x6a;" d="M268 0L10 0L10 175L137 175L137 700L355 700L355 87Q355 49 330.50 24.50Q306 0 268 0Z"  horiz-adv-x="395" vert-adv-y="1000"  />

      
      <glyph glyph-name="uni6b" unicode="&#x6b;" d="M298 446L350 700L558 700L558 613L477 370L575 87L575 0L357 0L298 271L258 271L258 0L40 0L40 700L258 700L258 446L298 446Z"  horiz-adv-x="595" vert-adv-y="1000"  />

      
      <glyph glyph-name="uni6c" unicode="&#x6c;" d="M40 0L40 700L258 700L258 175L478 175L478 0L40 0Z"  horiz-adv-x="488" vert-adv-y="1000"  />

      
      <glyph glyph-name="uni6d" unicode="&#x6d;" d="M305 0L251 336L234 336L234 0L20 0L20 87L92 700L336 700L389 424L404 424L457 700L702 700L773 87L773 0L560 0L560 336L542 336L488 0L305 0Z"  horiz-adv-x="793" vert-adv-y="1000"  />

      
      <glyph glyph-name="uni6e" unicode="&#x6e;" d="M374 376L392 376L363 613L363 700L565 700L565 0L333 0L230 323L213 323L241 87L241 0L40 0L40 700L272 700L374 376Z"  horiz-adv-x="605" vert-adv-y="1000"  />

      
      <glyph glyph-name="uni6f" unicode="&#x6f;" d="M346 524L259 524L259 175L346 175L346 524M477 0L128 0Q89 0 64.50 24.50Q40 49 40 87L40 613Q40 651 64.50 675.50Q89 700 128 700L477 700Q516 700 540.50 675.50Q565 651 565 613L565 87Q565 49 540.50 24.50Q516 0 477 0Z"  horiz-adv-x="605" vert-adv-y="1000"  />

      
      <glyph glyph-name="uni70" unicode="&#x70;" d="M259 524L259 393L346 393L346 524L259 524M477 218L259 218L259 0L40 0L40 700L477 700Q516 700 540.50 675.50Q565 651 565 613L565 306Q565 268 540.50 243Q516 218 477 218Z"  horiz-adv-x="595" vert-adv-y="1000"  />

      
      <glyph glyph-name="uni71" unicode="&#x71;" d="M346 524L259 524L259 175L346 175L346 524M477 0L386 0L430-68L430-155L264-155L231 0L128 0Q89 0 64.50 24.50Q40 49 40 87L40 613Q40 651 64.50 675.50Q89 700 128 700L477 700Q516 700 540.50 675.50Q565 651 565 613L565 87Q565 49 540.50 24.50Q516 0 477 0Z"  horiz-adv-x="605" vert-adv-y="1000"  />

      
      <glyph glyph-name="uni72" unicode="&#x72;" d="M346 524L259 524L259 393L346 393L346 524M40 700L478 700Q516 700 540.50 675.50Q565 651 565 613L565 338Q565 313 548 289.50Q531 266 507 259L576 87L576 0L362 0L303 218L259 218L259 0L40 0L40 700Z"  horiz-adv-x="596" vert-adv-y="1000"  />

      
      <glyph glyph-name="uni73" unicode="&#x73;" d="M79 347Q44 371 32 396.50Q20 422 20 466L20 613Q20 651 44.50 675.50Q69 700 108 700L488 700L488 614L454 524L239 524L239 492L429 365Q464 342 476 316Q488 290 488 246L488 87Q488 49 463.50 24.50Q439 0 401 0L20 0L20 175L269 175L269 221L79 347Z"  horiz-adv-x="508" vert-adv-y="1000"  />

      
      <glyph glyph-name="uni74" unicode="&#x74;" d="M141 524L10 524L10 700L500 700L500 613L465 524L360 524L360 0L141 0L141 524Z"  horiz-adv-x="510" vert-adv-y="1000"  />

      
      <glyph glyph-name="uni75" unicode="&#x75;" d="M346 700L565 700L565 0L128 0Q89 0 64.50 24.50Q40 49 40 87L40 700L259 700L259 175L346 175L346 700Z"  horiz-adv-x="605" vert-adv-y="1000"  />

      
      <glyph glyph-name="uni76" unicode="&#x76;" d="M121 0L10 643L10 700L228 700L273 175L298 175L343 700L561 700L561 643L450 0L121 0Z"  horiz-adv-x="571" vert-adv-y="1000"  />

      
      <glyph glyph-name="uni77" unicode="&#x77;" d="M305 700L488 700L542 363L560 363L560 700L773 700L773 613L702 0L457 0L404 275L389 275L336 0L92 0L20 613L20 700L234 700L234 363L251 363L305 700Z"  horiz-adv-x="793" vert-adv-y="1000"  />

      
      <glyph glyph-name="uni78" unicode="&#x78;" d="M299 446L345 700L553 700L553 606L472 370L570 83L570 0L351 0L299 271L281 271L229 0L10 0L10 83L108 370L27 606L27 700L235 700L281 446L299 446Z"  horiz-adv-x="580" vert-adv-y="1000"  />

      
      <glyph glyph-name="uni79" unicode="&#x79;" d="M181 191L10 613L10 700L229 700L282 428L298 428L352 700L570 700L570 613L399 191L399 0L181 0L181 191Z"  horiz-adv-x="580" vert-adv-y="1000"  />

      
      <glyph glyph-name="uni7a" unicode="&#x7a;" d="M20 0L20 179L256 500L256 524L54 524L20 613L20 700L506 700L506 520L269 199L269 175L515 175L515 0L20 0Z"  horiz-adv-x="535" vert-adv-y="1000"  />

      
      <glyph glyph-name="uniab" unicode="&#xab;" d="M459 499L365 335L459 170L459 124L342 124L235 303L235 366L342 545L459 545L459 499M244 499L149 335L244 170L244 124L126 124L20 303L20 366L126 545L244 545L244 499Z"  horiz-adv-x="499" vert-adv-y="1000"  />

      
      <glyph glyph-name="unibb" unicode="&#xbb;" d="M40 499L40 545L157 545L264 366L264 303L157 124L40 124L40 170L134 335L40 499M256 499L256 545L373 545L480 366L480 303L373 124L256 124L256 170L350 335L256 499Z"  horiz-adv-x="500" vert-adv-y="1000"  />

      
      <glyph glyph-name="uni0401" unicode="&#x0401;" d="M290 777L290 945L469 945L469 848L441 777L290 777M79 777L79 945L258 945L258 848L230 777L79 777M508 0L40 0L40 700L508 700L508 613L474 525L259 525L259 446L474 446L474 271L259 271L259 175L508 175L508 0Z"  horiz-adv-x="528" vert-adv-y="1000"  />

      
      <glyph glyph-name="uni040C" unicode="&#x040C;" d="M117 0Q79 0 54.50 24.50Q30 49 30 88L30 265Q30 302 56 325.50Q82 349 119 349L119 368Q82 368 56 391.50Q30 415 30 453L30 613Q30 651 54.50 675.50Q79 700 117 700L519 700L519 613L485 525L248 525L248 446L674 446L674 271L610 271L610 175L674 175L674 0L479 0Q440 0 415.50 24.50Q391 49 391 88L391 271L248 271L248 175L342 175L342 0L117 0Z"  horiz-adv-x="694" vert-adv-y="1000"  />

      
      <glyph glyph-name="uni0410" unicode="&#x0410;" d="M268 316L332 316L312 524L288 524L268 316M118 700L482 700L580 87L580 0L361 0L348 141L252 141L238 0L20 0L20 87L118 700Z"  horiz-adv-x="600" vert-adv-y="1000"  />

      
      <glyph glyph-name="uni0411" unicode="&#x0411;" d="M258 175L346 175L346 271L258 271L258 175M477 446Q515 446 539.50 421.50Q564 397 564 359L564 88Q564 50 539.50 25Q515 0 477 0L40 0L40 700L560 700L560 613L525 525L258 525L258 446L477 446Z"  horiz-adv-x="594" vert-adv-y="1000"  />

      
      <glyph glyph-name="uni0412" unicode="&#x0412;" d="M259 271L259 175L346 175L346 271L259 271M346 446L346 524L259 524L259 446L346 446M477 0L40 0L40 700L477 700Q516 700 540.50 675.50Q565 651 565 613L565 452Q565 415 538.50 391.50Q512 368 475 368L475 349Q512 349 538.50 325.50Q565 302 565 264L565 87Q565 49 540.50 24.50Q516 0 477 0Z"  horiz-adv-x="595" vert-adv-y="1000"  />

      
      <glyph glyph-name="uni0413" unicode="&#x0413;" d="M259 525L259 0L40 0L40 700L508 700L508 613L474 525L259 525Z"  horiz-adv-x="518" vert-adv-y="1000"  />

      
      <glyph glyph-name="uni0414" unicode="&#x0414;" d="M383 175L383 525L352 525L298 175L383 175M10 0L10 175L75 175L182 700L602 700L602 175L660 175L660 0L10 0Z"  horiz-adv-x="670" vert-adv-y="1000"  />

      
      <glyph glyph-name="uni0415" unicode="&#x0415;" d="M508 0L40 0L40 700L508 700L508 613L473 524L258 524L258 446L473 446L473 271L258 271L258 175L508 175L508 0Z"  horiz-adv-x="528" vert-adv-y="1000"  />

      
      <glyph glyph-name="uni0416" unicode="&#x0416;" d="M577 446L630 700L838 700L838 613L757 371L855 87L855 0L636 0L577 271L547 271L547 0L328 0L328 271L298 271L239 0L20 0L20 87L118 371L38 613L38 700L245 700L298 446L328 446L328 700L547 700L547 446L577 446Z"  horiz-adv-x="875" vert-adv-y="1000"  />

      
      <glyph glyph-name="uni0417" unicode="&#x0417;" d="M400 0L20 0L20 175L269 175L269 271L137 271L137 446L269 446L269 525L54 525L20 613L20 700L400 700Q438 700 462.50 675Q487 650 487 612L487 453Q487 415 461 391.50Q435 368 398 368L398 349Q435 349 461 325.50Q487 302 487 265L487 88Q487 50 462.50 25Q438 0 400 0Z"  horiz-adv-x="517" vert-adv-y="1000"  />

      
      <glyph glyph-name="uni0418" unicode="&#x0418;" d="M346 630L346 700L564 700L564 0L346 0L346 87L379 311L361 311L258 70L258 0L40 0L40 700L258 700L258 613L226 389L243 389L346 630Z"  horiz-adv-x="604" vert-adv-y="1000"  />

      
      <glyph glyph-name="uni0419" unicode="&#x0419;" d="M138 777L138 945L467 945L467 848L439 777L138 777M346 630L346 700L565 700L565 0L346 0L346 87L379 311L362 311L259 70L259 0L40 0L40 700L259 700L259 613L226 389L244 389L346 630Z"  horiz-adv-x="605" vert-adv-y="1000"  />

      
      <glyph glyph-name="uni041A" unicode="&#x041A;" d="M298 446L351 700L558 700L558 613L477 371L575 87L575 0L357 0L298 271L259 271L259 0L40 0L40 700L259 700L259 446L298 446Z"  horiz-adv-x="595" vert-adv-y="1000"  />

      
      <glyph glyph-name="uni041B" unicode="&#x041B;" d="M561 0L343 0L343 525L312 525L230 0L10 0L10 87L142 700L561 700L561 0Z"  horiz-adv-x="601" vert-adv-y="1000"  />

      
      <glyph glyph-name="uni041C" unicode="&#x041C;" d="M305 0L251 336L234 336L234 0L20 0L20 87L92 700L336 700L389 424L404 424L457 700L702 700L773 87L773 0L560 0L560 336L542 336L488 0L305 0Z"  horiz-adv-x="793" vert-adv-y="1000"  />

      
      <glyph glyph-name="uni041D" unicode="&#x041D;" d="M258 446L346 446L346 700L564 700L564 0L346 0L346 271L258 271L258 0L40 0L40 700L258 700L258 446Z"  horiz-adv-x="604" vert-adv-y="1000"  />

      
      <glyph glyph-name="uni041E" unicode="&#x041E;" d="M346 524L259 524L259 175L346 175L346 524M477 0L128 0Q89 0 64.50 24.50Q40 49 40 87L40 613Q40 651 64.50 675.50Q89 700 128 700L477 700Q516 700 540.50 675.50Q565 651 565 613L565 87Q565 49 540.50 24.50Q516 0 477 0Z"  horiz-adv-x="605" vert-adv-y="1000"  />

      
      <glyph glyph-name="uni041F" unicode="&#x041F;" d="M259 0L40 0L40 700L565 700L565 0L346 0L346 525L259 525L259 0Z"  horiz-adv-x="605" vert-adv-y="1000"  />

      
      <glyph glyph-name="uni0420" unicode="&#x0420;" d="M259 524L259 393L346 393L346 524L259 524M477 218L259 218L259 0L40 0L40 700L477 700Q516 700 540.50 675.50Q565 651 565 613L565 306Q565 268 540.50 243Q516 218 477 218Z"  horiz-adv-x="595" vert-adv-y="1000"  />

      
      <glyph glyph-name="uni0421" unicode="&#x0421;" d="M128 700L508 700L508 613L474 524L259 524L259 175L508 175L508 0L128 0Q89 0 64.50 24.50Q40 49 40 87L40 613Q40 651 64.50 675.50Q89 700 128 700Z"  horiz-adv-x="528" vert-adv-y="1000"  />

      
      <glyph glyph-name="uni0422" unicode="&#x0422;" d="M141 524L10 524L10 700L500 700L500 613L465 524L360 524L360 0L141 0L141 524Z"  horiz-adv-x="510" vert-adv-y="1000"  />

      
      <glyph glyph-name="uni0423" unicode="&#x0423;" d="M356 0L163 0L163 87L191 166L10 613L10 700L220 700L276 426L300 426L342 700L545 700L545 613L356 0Z"  horiz-adv-x="555" vert-adv-y="1000"  />

      
      <glyph glyph-name="uni0424" unicode="&#x0424;" d="M546 250L624 250L624 462L546 462L546 250M327 462L248 462L248 250L327 250L327 462M327 0L327 75L118 75Q79 75 54.50 99.50Q30 124 30 163L30 549Q30 588 54.50 612.50Q79 637 118 637L327 637L327 700L546 700L546 637L755 637Q794 637 818.50 612.50Q843 588 843 549L843 163Q843 124 818.50 99.50Q794 75 755 75L546 75L546 0L327 0Z"  horiz-adv-x="873" vert-adv-y="1000"  />

      
      <glyph glyph-name="uni0425" unicode="&#x0425;" d="M299 446L345 700L553 700L553 606L472 370L570 83L570 0L351 0L299 271L281 271L229 0L10 0L10 83L108 370L27 606L27 700L235 700L281 446L299 446Z"  horiz-adv-x="580" vert-adv-y="1000"  />

      
      <glyph glyph-name="uni0426" unicode="&#x0426;" d="M259 700L259 175L346 175L346 700L565 700L565 175L623 175L623 0L40 0L40 700L259 700Z"  horiz-adv-x="633" vert-adv-y="1000"  />

      
      <glyph glyph-name="uni0427" unicode="&#x0427;" d="M117 236Q79 236 54.50 261Q30 286 30 324L30 700L248 700L248 411L336 411L336 700L554 700L554 0L336 0L336 236L117 236Z"  horiz-adv-x="594" vert-adv-y="1000"  />

      
      <glyph glyph-name="uni0428" unicode="&#x0428;" d="M40 700L259 700L259 175L338 175L338 700L556 700L556 175L635 175L635 700L853 700L853 0L40 0L40 700Z"  horiz-adv-x="893" vert-adv-y="1000"  />

      
      <glyph glyph-name="uni0429" unicode="&#x0429;" d="M911 0L40 0L40 700L259 700L259 175L337 175L337 700L556 700L556 175L635 175L635 700L853 700L853 175L911 175L911 0Z"  horiz-adv-x="921" vert-adv-y="1000"  />

      
      <glyph glyph-name="uni042A" unicode="&#x042A;" d="M287 175L374 175L374 306L287 306L287 175M505 481Q544 481 568.50 456.50Q593 432 593 394L593 88Q593 50 568.50 25Q544 0 505 0L68 0L68 525L10 525L10 700L287 700L287 481L505 481Z"  horiz-adv-x="623" vert-adv-y="1000"  />

      
      <glyph glyph-name="uni042B" unicode="&#x042B;" d="M259 175L338 175L338 306L259 306L259 175M617 700L836 700L836 0L617 0L617 700M469 481Q507 481 531.50 456.50Q556 432 556 394L556 88Q556 50 531.50 25Q507 0 469 0L40 0L40 700L259 700L259 481L469 481Z"  horiz-adv-x="876" vert-adv-y="1000"  />

      
      <glyph glyph-name="uni042C" unicode="&#x042C;" d="M259 175L346 175L346 306L259 306L259 175M478 481Q516 481 540.50 456.50Q565 432 565 394L565 88Q565 50 540.50 25Q516 0 478 0L40 0L40 700L259 700L259 481L478 481Z"  horiz-adv-x="595" vert-adv-y="1000"  />

      
      <glyph glyph-name="uni042D" unicode="&#x042D;" d="M401 700Q439 700 463.50 675Q488 650 488 612L488 88Q488 50 463.50 25Q439 0 401 0L20 0L20 175L269 175L269 271L138 271L138 446L269 446L269 525L55 525L20 613L20 700L401 700Z"  horiz-adv-x="528" vert-adv-y="1000"  />

      
      <glyph glyph-name="uni042E" unicode="&#x042E;" d="M634 525L556 525L556 175L634 175L634 525M258 446L337 446L337 612Q337 650 361.50 675Q386 700 424 700L765 700Q804 700 828.50 675Q853 650 853 612L853 88Q853 50 828.50 25Q804 0 765 0L425 0Q386 0 361.50 25Q337 50 337 88L337 271L258 271L258 0L40 0L40 700L258 700L258 446Z"  horiz-adv-x="893" vert-adv-y="1000"  />

      
      <glyph glyph-name="uni042F" unicode="&#x042F;" d="M249 525L249 394L336 394L336 525L249 525M555 700L555 0L336 0L336 219L292 219L234 0L20 0L20 87L88 259Q64 266 47 289.50Q30 313 30 339L30 612Q30 650 54.50 675Q79 700 118 700L555 700Z"  horiz-adv-x="595" vert-adv-y="1000"  />

      
      <glyph glyph-name="uni0430" unicode="&#x0430;" d="M268 316L332 316L312 524L288 524L268 316M118 700L482 700L580 87L580 0L361 0L348 141L252 141L238 0L20 0L20 87L118 700Z"  horiz-adv-x="600" vert-adv-y="1000"  />

      
      <glyph glyph-name="uni0431" unicode="&#x0431;" d="M258 175L346 175L346 271L258 271L258 175M477 446Q515 446 539.50 421.50Q564 397 564 359L564 88Q564 50 539.50 25Q515 0 477 0L40 0L40 700L560 700L560 613L525 525L258 525L258 446L477 446Z"  horiz-adv-x="594" vert-adv-y="1000"  />

      
      <glyph glyph-name="uni0432" unicode="&#x0432;" d="M259 271L259 175L346 175L346 271L259 271M346 446L346 524L259 524L259 446L346 446M477 0L40 0L40 700L477 700Q516 700 540.50 675.50Q565 651 565 613L565 452Q565 415 538.50 391.50Q512 368 475 368L475 349Q512 349 538.50 325.50Q565 302 565 264L565 87Q565 49 540.50 24.50Q516 0 477 0Z"  horiz-adv-x="595" vert-adv-y="1000"  />

      
      <glyph glyph-name="uni0433" unicode="&#x0433;" d="M259 525L259 0L40 0L40 700L508 700L508 613L474 525L259 525Z"  horiz-adv-x="518" vert-adv-y="1000"  />

      
      <glyph glyph-name="uni0434" unicode="&#x0434;" d="M383 175L383 525L352 525L298 175L383 175M10 0L10 175L75 175L182 700L602 700L602 175L660 175L660 0L10 0Z"  horiz-adv-x="670" vert-adv-y="1000"  />

      
      <glyph glyph-name="uni0435" unicode="&#x0435;" d="M508 0L40 0L40 700L508 700L508 613L473 524L258 524L258 446L473 446L473 271L258 271L258 175L508 175L508 0Z"  horiz-adv-x="528" vert-adv-y="1000"  />

      
      <glyph glyph-name="uni0436" unicode="&#x0436;" d="M577 446L630 700L838 700L838 613L757 371L855 87L855 0L636 0L577 271L547 271L547 0L328 0L328 271L298 271L239 0L20 0L20 87L118 371L38 613L38 700L245 700L298 446L328 446L328 700L547 700L547 446L577 446Z"  horiz-adv-x="875" vert-adv-y="1000"  />

      
      <glyph glyph-name="uni0437" unicode="&#x0437;" d="M400 0L20 0L20 175L269 175L269 271L137 271L137 446L269 446L269 525L54 525L20 613L20 700L400 700Q438 700 462.50 675Q487 650 487 612L487 453Q487 415 461 391.50Q435 368 398 368L398 349Q435 349 461 325.50Q487 302 487 265L487 88Q487 50 462.50 25Q438 0 400 0Z"  horiz-adv-x="517" vert-adv-y="1000"  />

      
      <glyph glyph-name="uni0438" unicode="&#x0438;" d="M346 630L346 700L564 700L564 0L346 0L346 87L379 311L361 311L258 70L258 0L40 0L40 700L258 700L258 613L226 389L243 389L346 630Z"  horiz-adv-x="604" vert-adv-y="1000"  />

      
      <glyph glyph-name="uni0439" unicode="&#x0439;" d="M138 777L138 945L467 945L467 848L439 777L138 777M346 630L346 700L565 700L565 0L346 0L346 87L379 311L362 311L259 70L259 0L40 0L40 700L259 700L259 613L226 389L244 389L346 630Z"  horiz-adv-x="605" vert-adv-y="1000"  />

      
      <glyph glyph-name="uni043A" unicode="&#x043A;" d="M298 446L351 700L558 700L558 613L477 371L575 87L575 0L357 0L298 271L259 271L259 0L40 0L40 700L259 700L259 446L298 446Z"  horiz-adv-x="595" vert-adv-y="1000"  />

      
      <glyph glyph-name="uni043B" unicode="&#x043B;" d="M561 0L343 0L343 525L312 525L230 0L10 0L10 87L142 700L561 700L561 0Z"  horiz-adv-x="601" vert-adv-y="1000"  />

      
      <glyph glyph-name="uni043C" unicode="&#x043C;" d="M305 0L251 336L234 336L234 0L20 0L20 87L92 700L336 700L389 424L404 424L457 700L702 700L773 87L773 0L560 0L560 336L542 336L488 0L305 0Z"  horiz-adv-x="793" vert-adv-y="1000"  />

      
      <glyph glyph-name="uni043D" unicode="&#x043D;" d="M258 446L346 446L346 700L564 700L564 0L346 0L346 271L258 271L258 0L40 0L40 700L258 700L258 446Z"  horiz-adv-x="604" vert-adv-y="1000"  />

      
      <glyph glyph-name="uni043E" unicode="&#x043E;" d="M346 524L259 524L259 175L346 175L346 524M477 0L128 0Q89 0 64.50 24.50Q40 49 40 87L40 613Q40 651 64.50 675.50Q89 700 128 700L477 700Q516 700 540.50 675.50Q565 651 565 613L565 87Q565 49 540.50 24.50Q516 0 477 0Z"  horiz-adv-x="605" vert-adv-y="1000"  />

      
      <glyph glyph-name="uni043F" unicode="&#x043F;" d="M259 0L40 0L40 700L565 700L565 0L346 0L346 525L259 525L259 0Z"  horiz-adv-x="605" vert-adv-y="1000"  />

      
      <glyph glyph-name="uni0440" unicode="&#x0440;" d="M259 524L259 393L346 393L346 524L259 524M477 218L259 218L259 0L40 0L40 700L477 700Q516 700 540.50 675.50Q565 651 565 613L565 306Q565 268 540.50 243Q516 218 477 218Z"  horiz-adv-x="595" vert-adv-y="1000"  />

      
      <glyph glyph-name="uni0441" unicode="&#x0441;" d="M128 700L508 700L508 613L474 524L259 524L259 175L508 175L508 0L128 0Q89 0 64.50 24.50Q40 49 40 87L40 613Q40 651 64.50 675.50Q89 700 128 700Z"  horiz-adv-x="528" vert-adv-y="1000"  />

      
      <glyph glyph-name="uni0442" unicode="&#x0442;" d="M141 524L10 524L10 700L500 700L500 613L465 524L360 524L360 0L141 0L141 524Z"  horiz-adv-x="510" vert-adv-y="1000"  />

      
      <glyph glyph-name="uni0443" unicode="&#x0443;" d="M356 0L163 0L163 87L191 166L10 613L10 700L220 700L276 426L300 426L342 700L545 700L545 613L356 0Z"  horiz-adv-x="555" vert-adv-y="1000"  />

      
      <glyph glyph-name="uni0444" unicode="&#x0444;" d="M546 250L624 250L624 462L546 462L546 250M327 462L248 462L248 250L327 250L327 462M327 0L327 75L118 75Q79 75 54.50 99.50Q30 124 30 163L30 549Q30 588 54.50 612.50Q79 637 118 637L327 637L327 700L546 700L546 637L755 637Q794 637 818.50 612.50Q843 588 843 549L843 163Q843 124 818.50 99.50Q794 75 755 75L546 75L546 0L327 0Z"  horiz-adv-x="873" vert-adv-y="1000"  />

      
      <glyph glyph-name="uni0445" unicode="&#x0445;" d="M299 446L345 700L553 700L553 606L472 370L570 83L570 0L351 0L299 271L281 271L229 0L10 0L10 83L108 370L27 606L27 700L235 700L281 446L299 446Z"  horiz-adv-x="580" vert-adv-y="1000"  />

      
      <glyph glyph-name="uni0446" unicode="&#x0446;" d="M259 700L259 175L346 175L346 700L565 700L565 175L623 175L623 0L40 0L40 700L259 700Z"  horiz-adv-x="633" vert-adv-y="1000"  />

      
      <glyph glyph-name="uni0447" unicode="&#x0447;" d="M117 236Q79 236 54.50 261Q30 286 30 324L30 700L248 700L248 411L336 411L336 700L554 700L554 0L336 0L336 236L117 236Z"  horiz-adv-x="594" vert-adv-y="1000"  />

      
      <glyph glyph-name="uni0448" unicode="&#x0448;" d="M40 700L259 700L259 175L338 175L338 700L556 700L556 175L635 175L635 700L853 700L853 0L40 0L40 700Z"  horiz-adv-x="893" vert-adv-y="1000"  />

      
      <glyph glyph-name="uni0449" unicode="&#x0449;" d="M911 0L40 0L40 700L259 700L259 175L337 175L337 700L556 700L556 175L635 175L635 700L853 700L853 175L911 175L911 0Z"  horiz-adv-x="921" vert-adv-y="1000"  />

      
      <glyph glyph-name="uni044A" unicode="&#x044A;" d="M287 175L374 175L374 306L287 306L287 175M505 481Q544 481 568.50 456.50Q593 432 593 394L593 88Q593 50 568.50 25Q544 0 505 0L68 0L68 525L10 525L10 700L287 700L287 481L505 481Z"  horiz-adv-x="623" vert-adv-y="1000"  />

      
      <glyph glyph-name="uni044B" unicode="&#x044B;" d="M259 175L338 175L338 306L259 306L259 175M617 700L836 700L836 0L617 0L617 700M469 481Q507 481 531.50 456.50Q556 432 556 394L556 88Q556 50 531.50 25Q507 0 469 0L40 0L40 700L259 700L259 481L469 481Z"  horiz-adv-x="876" vert-adv-y="1000"  />

      
      <glyph glyph-name="uni044C" unicode="&#x044C;" d="M259 175L346 175L346 306L259 306L259 175M478 481Q516 481 540.50 456.50Q565 432 565 394L565 88Q565 50 540.50 25Q516 0 478 0L40 0L40 700L259 700L259 481L478 481Z"  horiz-adv-x="595" vert-adv-y="1000"  />

      
      <glyph glyph-name="uni044D" unicode="&#x044D;" d="M401 700Q439 700 463.50 675Q488 650 488 612L488 88Q488 50 463.50 25Q439 0 401 0L20 0L20 175L269 175L269 271L138 271L138 446L269 446L269 525L55 525L20 613L20 700L401 700Z"  horiz-adv-x="528" vert-adv-y="1000"  />

      
      <glyph glyph-name="uni044E" unicode="&#x044E;" d="M634 525L556 525L556 175L634 175L634 525M258 446L337 446L337 612Q337 650 361.50 675Q386 700 424 700L765 700Q804 700 828.50 675Q853 650 853 612L853 88Q853 50 828.50 25Q804 0 765 0L425 0Q386 0 361.50 25Q337 50 337 88L337 271L258 271L258 0L40 0L40 700L258 700L258 446Z"  horiz-adv-x="893" vert-adv-y="1000"  />

      
      <glyph glyph-name="uni044F" unicode="&#x044F;" d="M249 525L249 394L336 394L336 525L249 525M555 700L555 0L336 0L336 219L292 219L234 0L20 0L20 87L88 259Q64 266 47 289.50Q30 313 30 339L30 612Q30 650 54.50 675Q79 700 118 700L555 700Z"  horiz-adv-x="595" vert-adv-y="1000"  />

      
      <glyph glyph-name="uni0451" unicode="&#x0451;" d="M290 777L290 945L469 945L469 848L441 777L290 777M79 777L79 945L258 945L258 848L230 777L79 777M508 0L40 0L40 700L508 700L508 613L474 525L259 525L259 446L474 446L474 271L259 271L259 175L508 175L508 0Z"  horiz-adv-x="528" vert-adv-y="1000"  />

      
      <glyph glyph-name="uni2013" unicode="&#x2013;" d="M20 405L362 405L362 264L20 264L20 405Z"  horiz-adv-x="382" vert-adv-y="1000"  />

      
      <glyph glyph-name="uni2014" unicode="&#x2014;" d="M20 405L774 405L774 264L20 264L20 405Z"  horiz-adv-x="794" vert-adv-y="1000"  />

      
      <glyph glyph-name="uni2018" unicode="&#x2018;" d="M40 669L82 774L161 774L161 700L237 700L237 524L40 524L40 669Z"  horiz-adv-x="277" vert-adv-y="1000"  />

      
      <glyph glyph-name="uni2019" unicode="&#x2019;" d="M237 700L237 556L196 449L116 449L116 524L40 524L40 700L237 700Z"  horiz-adv-x="277" vert-adv-y="1000"  />

      
      <glyph glyph-name="uni201C" unicode="&#x201C;" d="M296 669L338 774L417 774L417 700L493 700L493 524L296 524L296 669M40 668L81 774L160 774L160 700L237 700L237 524L40 524L40 668Z"  horiz-adv-x="533" vert-adv-y="1000"  />

      
      <glyph glyph-name="uni201D" unicode="&#x201D;" d="M237 555L195 450L116 450L116 524L40 524L40 700L237 700L237 555M493 556L452 450L373 450L373 524L296 524L296 700L493 700L493 556Z"  horiz-adv-x="533" vert-adv-y="1000"  />

      
      <glyph glyph-name="uni201E" unicode="&#x201E;" d="M237 31L195-75L116-75L116 0L40 0L40 175L237 175L237 31M493 31L452-75L373-75L373 0L296 0L296 175L493 175L493 31Z"  horiz-adv-x="533" vert-adv-y="1000"  />

      
      <glyph glyph-name="uni20AC" unicode="&#x20AC;" d="M167 700L548 700L548 612L513 524L298 524L298 458L470 458L470 414L453 369L298 369L298 330L420 330L420 285L403 241L298 241L298 175L548 175L548 0L167 0Q129 0 104.50 24.50Q80 49 80 87L80 241L0 241L0 285L18 330L80 330L80 369L0 369L0 414L18 458L80 458L80 612Q80 650 104.50 675Q129 700 167 700Z"  horiz-adv-x="568" vert-adv-y="1000"  />

      

  </font>
</defs>
</svg>
