<?xml version="1.0" standalone="no"?>
  <!DOCTYPE svg PUBLIC "-//W3C//DTD SVG 1.1//EN" "http://www.w3.org/Graphics/SVG/1.1/DTD/svg11.dtd" >
  <svg>
  <metadata>
  Created by font-carrier
  </metadata>
  <defs>
  <font id="Roboto-BoldCondensed" horiz-adv-x="2150" vert-adv-y="2150" >
    <font-face
      
      font-family="Roboto Cn"
      
      font-weight="400"
      
      font-stretch="normal"
      
      units-per-em="2048"
      
      ascent="1900"
      
      descent="-500"
      
    />
      <missing-glyph />

      

      
      <glyph glyph-name="uni21" unicode="&#x21;" d="M397 504L114 504L114 1456L397 1456L397 504M395 0L116 0L116 253L395 253L395 0Z"  horiz-adv-x="508" vert-adv-y="2048"  />

      
      <glyph glyph-name="uni22" unicode="&#x22;" d="M352 1190L258 939L135 939L133 1178L133 1456L352 1456L352 1190M668 1190L574 939L452 939L451 1186L451 1456L668 1456L668 1190Z"  horiz-adv-x="783" vert-adv-y="2048"  />

      
      <glyph glyph-name="uni23" unicode="&#x23;" d="M549 410L406 410L346 0L174 0L234 410L43 410L43 573L258 573L303 876L108 876L108 1040L327 1040L388 1456L560 1456L499 1040L642 1040L704 1456L875 1456L814 1040L1003 1040L1003 876L790 876L745 573L938 573L938 410L721 410L661 0L489 0L549 410M430 573L573 573L618 876L475 876L430 573Z"  horiz-adv-x="1050" vert-adv-y="2048"  />

      
      <glyph glyph-name="uni24" unicode="&#x24;" d="M691 380Q691 465 655.50 514.50Q620 564 528 613Q328 691 233 790Q138 889 138 1073Q138 1240 234 1347.50Q330 1455 494 1474L494 1685L639 1685L639 1470Q796 1444 885.50 1329Q975 1214 975 1027L694 1027Q694 1138 656 1197.50Q618 1257 551 1257Q481 1257 450.50 1206.50Q420 1156 420 1072Q420 994 454 947Q488 900 585 845Q779 773 876 669Q973 565 973 382Q973 210 878.50 106.50Q784 3 620-16L620-214L474-214L474-17Q306 2 199 112Q92 222 96 435L98 440L372 440Q372 309 419.50 253Q467 197 547 197Q621 197 656 247Q691 297 691 380Z"  horiz-adv-x="1069" vert-adv-y="2048"  />

      
      <glyph glyph-name="uni25" unicode="&#x25;" d="M91 1176Q91 1305 166.50 1391Q242 1477 378 1477Q516 1477 591.50 1391.50Q667 1306 667 1176L667 1099Q667 970 592 885Q517 800 380 800Q243 800 167 885Q91 970 91 1099L91 1176M276 1099Q276 1040 303 999.50Q330 959 380 959Q428 959 454.50 999Q481 1039 481 1099L481 1176Q481 1235 454 1276.50Q427 1318 378 1318Q329 1318 302.50 1276.50Q276 1235 276 1176L276 1099M713 357Q713 485 789 571Q865 657 1002 657Q1140 657 1215 571.50Q1290 486 1290 357L1290 280Q1290 150 1215 65Q1140-20 1003-20Q865-20 789 65Q713 150 713 280L713 357M898 280Q898 223 928 181Q958 139 1003 139Q1060 139 1082 177Q1104 215 1104 280L1104 357Q1104 416 1077.50 457Q1051 498 1002 498Q952 498 925 457Q898 416 898 357L898 280M449 110L315 183L927 1321L1061 1248L449 110Z"  horiz-adv-x="1376" vert-adv-y="2048"  />

      
      <glyph glyph-name="uni26" unicode="&#x26;" d="M292 780Q232 871 202.50 946Q173 1021 173 1099Q173 1281 270.50 1379Q368 1477 537 1477Q681 1477 772 1379.50Q863 1282 863 1142Q863 1038 826.50 963Q790 888 717 827L622 753L856 449L862 450Q889 502 905 568Q921 634 921 708L1145 708Q1145 567 1113 450.50Q1081 334 1013 244L1201 0L881 0L815 86Q738 32 659 5.50Q580-21 488-21Q292-21 175.50 92Q59 205 59 388Q59 507 114.50 593Q170 679 284 774L292 780M505 199Q551 199 597.50 212.50Q644 226 688 252L424 597Q378 547 361 499.50Q344 452 344 404Q344 315 389 257Q434 199 505 199M423 1103Q423 1063 440.50 1020Q458 977 492 927L546 967Q596 1004 613 1042Q630 1080 630 1126Q630 1179 603.50 1217.50Q577 1256 529 1256Q480 1256 451.50 1211.50Q423 1167 423 1103Z"  horiz-adv-x="1236" vert-adv-y="2048"  />

      
      <glyph glyph-name="uni27" unicode="&#x27;" d="M330 1188L236 907L81 907L79 1175L79 1456L330 1456L330 1188Z"  horiz-adv-x="411" vert-adv-y="2048"  />

      
      <glyph glyph-name="uni28" unicode="&#x28;" d="M110 591Q110 975 243 1250Q376 1525 543 1607L549 1607L599 1468Q491 1370 417 1148Q343 926 343 593L343 565Q343 232 417 10.50Q491-211 599-311L549-448L543-448Q375-365 242.50-92Q110 181 110 567L110 591Z"  horiz-adv-x="637" vert-adv-y="2048"  />

      
      <glyph glyph-name="uni29" unicode="&#x29;" d="M542 567Q542 192 403.50-87.50Q265-367 94-449L88-449L36-311Q143-213 218 9.50Q293 232 293 565L293 593Q293 925 217 1148Q141 1371 36 1470L88 1608L94 1608Q264 1527 403 1245.50Q542 964 542 591L542 567Z"  horiz-adv-x="637" vert-adv-y="2048"  />

      
      <glyph glyph-name="uni2a" unicode="&#x2a;" d="M246 664L44 743L94 904L308 826L312 1081L477 1081L485 817L690 897L740 734L533 652L653 444L519 344L385 555L254 351L119 448L246 664Z"  horiz-adv-x="780" vert-adv-y="2048"  />

      
      <glyph glyph-name="uni2b" unicode="&#x2b;" d="M637 806L951 806L951 560L637 560L637 146L370 146L370 560L53 560L53 806L370 806L370 1206L637 1206L637 806Z"  horiz-adv-x="1010" vert-adv-y="2048"  />

      
      <glyph glyph-name="uni2c" unicode="&#x2c;" d="M393 4L247-305L58-305L119 12L119 246L393 246L393 4Z"  horiz-adv-x="495" vert-adv-y="2048"  />

      
      <glyph glyph-name="uni2d" unicode="&#x2d;" d="M639 514L133 514L133 735L639 735L639 514Z"  horiz-adv-x="782" vert-adv-y="2048"  />

      
      <glyph glyph-name="uni2e" unicode="&#x2e;" d="M404 0L126 0L126 253L404 253L404 0Z"  horiz-adv-x="545" vert-adv-y="2048"  />

      
      <glyph glyph-name="uni2f" unicode="&#x2f;" d="M263-125L-12-125L430 1456L707 1456L263-125Z"  horiz-adv-x="722" vert-adv-y="2048"  />

      
      <glyph glyph-name="uni30" unicode="&#x30;" d="M986 528Q986 271 863 125Q740-21 539-21Q335-21 211.50 125Q88 271 88 528L88 927Q88 1182 211 1329.50Q334 1477 537 1477Q739 1477 862.50 1329.50Q986 1182 986 927L986 528M703 952Q703 1096 658.50 1176Q614 1256 537 1256Q458 1256 414.50 1176Q371 1096 371 952L371 505Q371 358 415 278.50Q459 199 539 199Q616 199 659.50 278.50Q703 358 703 505L703 952Z"  horiz-adv-x="1075" vert-adv-y="2048"  />

      
      <glyph glyph-name="uni31" unicode="&#x31;" d="M740 0L457 0L457 1211L191 1204L191 1421L740 1477L740 0Z"  horiz-adv-x="1075" vert-adv-y="2048"  />

      
      <glyph glyph-name="uni32" unicode="&#x32;" d="M998 0L106 0L106 188L509 697Q595 813 632.50 897Q670 981 670 1050Q670 1145 633.50 1200.50Q597 1256 521 1256Q442 1256 399.50 1185.50Q357 1115 357 1005L80 1005L77 1011Q73 1206 195 1341.50Q317 1477 521 1477Q728 1477 841.50 1362.50Q955 1248 955 1051Q955 918 889.50 806Q824 694 670 507L472 220L998 220L998 0Z"  horiz-adv-x="1075" vert-adv-y="2048"  />

      
      <glyph glyph-name="uni33" unicode="&#x33;" d="M529 852Q615 852 658 907.50Q701 963 701 1061Q701 1144 656 1200Q611 1256 532 1256Q467 1256 423 1207Q379 1158 379 1079L103 1079L101 1085Q96 1257 222 1367Q348 1477 532 1477Q739 1477 862.50 1370Q986 1263 986 1065Q986 964 932 880Q878 796 785 749Q890 706 947.50 618Q1005 530 1005 405Q1005 206 871.50 92.50Q738-21 530-21Q349-21 214 86.50Q79 194 84 393L86 399L361 399Q361 314 409 256.50Q457 199 530 199Q616 199 669 258Q722 317 722 409Q722 527 672.50 582.50Q623 638 529 638L382 638L382 852L529 852Z"  horiz-adv-x="1075" vert-adv-y="2048"  />

      
      <glyph glyph-name="uni34" unicode="&#x34;" d="M878 542L1017 542L1017 320L878 320L878 0L594 0L594 320L69 320L55 493L593 1456L878 1456L878 542M306 542L594 542L594 1068L588 1069L562 1011L306 542Z"  horiz-adv-x="1075" vert-adv-y="2048"  />

      
      <glyph glyph-name="uni35" unicode="&#x35;" d="M124 643L200 1456L946 1456L946 1229L432 1229L397 876Q434 907 489.50 928Q545 949 608 951Q792 954 891.50 826Q991 698 991 467Q991 253 881.50 116Q772-21 543-21Q359-21 227 86Q95 193 100 378L102 383L376 397Q376 303 422 251Q468 199 543 199Q630 199 668.50 267Q707 335 707 465Q707 595 664 670.50Q621 746 534 746Q465 746 428 714Q391 682 377 626L124 643Z"  horiz-adv-x="1075" vert-adv-y="2048"  />

      
      <glyph glyph-name="uni36" unicode="&#x36;" d="M614 1477Q691 1477 754.50 1461.50Q818 1446 884 1415L835 1206Q777 1229 728.50 1240.50Q680 1252 616 1252Q504 1252 435 1154.50Q366 1057 366 879L366 835Q417 890 488.50 920Q560 950 649 950Q817 950 910 817Q1003 684 1003 468Q1003 252 878.50 115.50Q754-21 555-21Q346-21 215 134Q84 289 84 558L84 873Q84 1149 233 1313Q382 1477 614 1477M553 733Q487 733 440 709.50Q393 686 366 644L366 554Q366 385 417.50 292Q469 199 555 199Q630 199 675 276Q720 353 720 468Q720 592 674.50 662.50Q629 733 553 733Z"  horiz-adv-x="1075" vert-adv-y="2048"  />

      
      <glyph glyph-name="uni37" unicode="&#x37;" d="M998 1235Q780 966 702.50 731Q625 496 625 178L625 0L341 0L341 178Q341 485 439.50 739.50Q538 994 726 1235L66 1235L66 1456L998 1456L998 1235Z"  horiz-adv-x="1075" vert-adv-y="2048"  />

      
      <glyph glyph-name="uni38" unicode="&#x38;" d="M965 1078Q965 970 914 886.50Q863 803 774 756Q883 707 946.50 615.50Q1010 524 1010 406Q1010 203 881.50 91Q753-21 553-21Q345-21 211 91.50Q77 204 77 406Q77 524 142.50 615.50Q208 707 322 756Q228 803 175 886.50Q122 970 122 1078Q122 1270 241.50 1373.50Q361 1477 552 1477Q736 1477 850.50 1374Q965 1271 965 1078M727 419Q727 518 676.50 581Q626 644 552 644Q469 644 415 581Q361 518 361 419Q361 318 415 258.50Q469 199 553 199Q628 199 677.50 258.50Q727 318 727 419M682 1065Q682 1153 646.50 1204.50Q611 1256 552 1256Q484 1256 445 1206Q406 1156 406 1065Q406 974 446 919.50Q486 865 553 865Q612 865 647 919Q682 973 682 1065Z"  horiz-adv-x="1075" vert-adv-y="2048"  />

      
      <glyph glyph-name="uni39" unicode="&#x39;" d="M489 199Q579 199 637 280.50Q695 362 695 506L695 605Q652 544 593.50 513Q535 482 469 482Q288 482 184.50 614.50Q81 747 81 971Q81 1187 206 1332Q331 1477 526 1477Q725 1477 852 1328.50Q979 1180 979 917L979 523Q979 274 840 126.50Q701-21 489-21Q421-21 348-4.50Q275 12 212 42L259 247Q315 222 368.50 210.50Q422 199 489 199M521 690Q578 690 622.50 718Q667 746 695 793L695 967Q695 1108 649 1182Q603 1256 527 1256Q453 1256 408 1172.50Q363 1089 363 971Q363 845 403.50 767.50Q444 690 521 690Z"  horiz-adv-x="1075" vert-adv-y="2048"  />

      
      <glyph glyph-name="uni3a" unicode="&#x3a;" d="M404 0L126 0L126 253L404 253L404 0M404 876L126 876L126 1129L404 1129L404 876Z"  horiz-adv-x="540" vert-adv-y="2048"  />

      
      <glyph glyph-name="uni3b" unicode="&#x3b;" d="M405 876L127 876L127 1129L405 1129L405 876M444 4L298-305L109-305L170 12L170 246L444 246L444 4Z"  horiz-adv-x="517" vert-adv-y="2048"  />

      
      <glyph glyph-name="uni3c" unicode="&#x3c;" d="M301 547L301 541L798 333L798 69L49 435L49 657L798 1023L798 760L301 547Z"  horiz-adv-x="910" vert-adv-y="2048"  />

      
      <glyph glyph-name="uni3d" unicode="&#x3d;" d="M903 760L120 760L120 983L903 983L903 760M903 329L120 329L120 552L903 552L903 329Z"  horiz-adv-x="1036" vert-adv-y="2048"  />

      
      <glyph glyph-name="uni3e" unicode="&#x3e;" d="M608 540L608 546L107 755L107 1017L862 652L862 429L107 63L107 325L608 540Z"  horiz-adv-x="921" vert-adv-y="2048"  />

      
      <glyph glyph-name="uni3f" unicode="&#x3f;" d="M275 413Q276 549 314.50 613.50Q353 678 463 772Q520 829 554 896.50Q588 964 588 1051Q588 1145 549.50 1199.50Q511 1254 440 1254Q384 1254 343.50 1207Q303 1160 301 1072L27 1072L25 1078Q22 1273 138 1375Q254 1477 440 1477Q641 1477 756 1363Q871 1249 871 1053Q871 927 806.50 820Q742 713 644 639Q591 593 574 544.50Q557 496 557 413L275 413M555 0L275 0L275 243L555 243L555 0Z"  horiz-adv-x="907" vert-adv-y="2048"  />

      
      <glyph glyph-name="uni40" unicode="&#x40;" d="M1561 516Q1552 296 1443.50 137.50Q1335-21 1119-21Q1046-21 994 24Q942 69 921 150Q882 66 824 24Q766-18 691-18Q562-18 493 101Q424 220 441 416Q464 668 571.50 820.50Q679 973 831 973Q938 973 1002.50 947Q1067 921 1146 866L1144 863L1148 863L1102 293Q1096 194 1112 158.50Q1128 123 1156 130L1162 129Q1261 124 1321 234.50Q1381 345 1389 516Q1403 869 1268 1066Q1133 1263 850 1263Q579 1263 419 1051Q259 839 246 478Q230 125 375.50-82Q521-289 793-289Q869-289 950.50-269.50Q1032-250 1090-220L1125-364Q1064-406 971-429.50Q878-453 790-453Q431-453 236.50-204Q42 45 57 478Q73 905 287 1159.50Q501 1414 854 1414Q1202 1414 1388.50 1173Q1575 932 1561 516M658 416Q649 288 673.50 219.50Q698 151 752 151Q800 151 839 180Q878 209 908 286L908 293L948 793Q929 799 909 802.50Q889 806 868 806Q771 806 722 709.50Q673 613 658 416Z"  horiz-adv-x="1642" vert-adv-y="2048"  />

      
      <glyph glyph-name="uni41" unicode="&#x41;" d="M758 315L394 315L312 0L18 0L431 1456L723 1456L1136 0L841 0L758 315M452 537L700 537L579 999L573 999L452 537Z"  horiz-adv-x="1141" vert-adv-y="2048"  />

      
      <glyph glyph-name="uni42" unicode="&#x42;" d="M112 0L112 1456L529 1456Q757 1456 884 1356.50Q1011 1257 1011 1059Q1011 956 964.50 875.50Q918 795 827 756Q949 731 1008.50 639Q1068 547 1068 424Q1068 215 946.50 107.50Q825 0 600 0L112 0M394 645L394 220L600 220Q692 220 739 271.50Q786 323 786 424Q786 528 743 585Q700 642 609 645L599 645L394 645M394 840L542 840Q633 842 681 891Q729 940 729 1033Q729 1137 679 1186Q629 1235 529 1235L394 1235L394 840Z"  horiz-adv-x="1142" vert-adv-y="2048"  />

      
      <glyph glyph-name="uni43" unicode="&#x43;" d="M1066 452L1068 446Q1072 212 948.50 95.50Q825-21 596-21Q361-21 223 117.50Q85 256 85 511L85 943Q85 1197 218.50 1337Q352 1477 579 1477Q818 1477 946 1361Q1074 1245 1070 1010L1068 1004L794 1004Q794 1144 744.50 1200Q695 1256 579 1256Q473 1256 420 1179.50Q367 1103 367 945L367 511Q367 352 424 275.50Q481 199 596 199Q701 199 747 254.50Q793 310 793 452L1066 452Z"  horiz-adv-x="1133" vert-adv-y="2048"  />

      
      <glyph glyph-name="uni44" unicode="&#x44;" d="M112 0L112 1456L561 1456Q789 1456 938 1285.50Q1087 1115 1087 848L1087 607Q1087 339 938 169.50Q789 0 561 0L112 0M394 1235L394 220L561 220Q670 220 737 328Q804 436 804 607L804 850Q804 1019 737 1127Q670 1235 561 1235L394 1235Z"  horiz-adv-x="1173" vert-adv-y="2048"  />

      
      <glyph glyph-name="uni45" unicode="&#x45;" d="M839 643L394 643L394 220L927 220L927 0L112 0L112 1456L925 1456L925 1235L394 1235L394 863L839 863L839 643Z"  horiz-adv-x="994" vert-adv-y="2048"  />

      
      <glyph glyph-name="uni46" unicode="&#x46;" d="M856 609L394 609L394 0L112 0L112 1456L944 1456L944 1235L394 1235L394 829L856 829L856 609Z"  horiz-adv-x="994" vert-adv-y="2048"  />

      
      <glyph glyph-name="uni47" unicode="&#x47;" d="M1087 192Q1025 105 907.50 42Q790-21 604-21Q368-21 225.50 116.50Q83 254 83 507L83 949Q83 1201 221.50 1339Q360 1477 588 1477Q826 1477 947 1364.50Q1068 1252 1064 1044L1062 1038L797 1038Q797 1152 747 1204Q697 1256 596 1256Q487 1256 426 1180Q365 1104 365 951L365 507Q365 351 427 275Q489 199 604 199Q686 199 733 218.50Q780 238 805 270L805 564L583 564L583 759L1087 759L1087 192Z"  horiz-adv-x="1178" vert-adv-y="2048"  />

      
      <glyph glyph-name="uni48" unicode="&#x48;" d="M1144 0L863 0L863 607L394 607L394 0L112 0L112 1456L394 1456L394 827L863 827L863 1456L1144 1456L1144 0Z"  horiz-adv-x="1257" vert-adv-y="2048"  />

      
      <glyph glyph-name="uni49" unicode="&#x49;" d="M409 0L128 0L128 1456L409 1456L409 0Z"  horiz-adv-x="538" vert-adv-y="2048"  />

      
      <glyph glyph-name="uni4a" unicode="&#x4a;" d="M602 1456L884 1456L884 453Q884 236 767.50 107.50Q651-21 468-21Q262-21 143 93Q24 207 28 426L31 432L304 432Q304 313 349.50 256Q395 199 468 199Q527 199 564.50 267Q602 335 602 453L602 1456Z"  horiz-adv-x="994" vert-adv-y="2048"  />

      
      <glyph glyph-name="uni4b" unicode="&#x4b;" d="M471 611L394 611L394 0L112 0L112 1456L394 1456L394 860L452 860L761 1456L1111 1456L691 791L1142 0L782 0L471 611Z"  horiz-adv-x="1142" vert-adv-y="2048"  />

      
      <glyph glyph-name="uni4c" unicode="&#x4c;" d="M394 220L937 220L937 0L112 0L112 1456L394 1456L394 220Z"  horiz-adv-x="994" vert-adv-y="2048"  />

      
      <glyph glyph-name="uni4d" unicode="&#x4d;" d="M744 376L750 376L1023 1456L1392 1456L1392 0L1112 0L1112 917L1106 918L843 0L654 0L393 911L387 910L387 0L106 0L106 1456L473 1456L744 376Z"  horiz-adv-x="1499" vert-adv-y="2048"  />

      
      <glyph glyph-name="uni4e" unicode="&#x4e;" d="M1144 0L862 0L400 929L394 928L394 0L112 0L112 1456L394 1456L856 526L862 527L862 1456L1144 1456L1144 0Z"  horiz-adv-x="1256" vert-adv-y="2048"  />

      
      <glyph glyph-name="uni4f" unicode="&#x4f;" d="M1145 524Q1145 267 1000 123Q855-21 614-21Q373-21 229 123Q85 267 85 524L85 930Q85 1186 228.50 1331.50Q372 1477 613 1477Q854 1477 999.50 1331.50Q1145 1186 1145 930L1145 524M864 933Q864 1092 799.50 1173Q735 1254 613 1254Q490 1254 428 1173.50Q366 1093 366 933L366 524Q366 362 428.50 281Q491 200 614 200Q737 200 800.50 281Q864 362 864 524L864 933Z"  horiz-adv-x="1230" vert-adv-y="2048"  />

      
      <glyph glyph-name="uni50" unicode="&#x50;" d="M394 527L394 0L112 0L112 1456L599 1456Q818 1456 946 1327.50Q1074 1199 1074 991Q1074 782 946 654.50Q818 527 599 527L394 527M394 748L599 748Q694 748 743.50 816Q793 884 793 989Q793 1096 743.50 1165.50Q694 1235 599 1235L394 1235L394 748Z"  horiz-adv-x="1142" vert-adv-y="2048"  />

      
      <glyph glyph-name="uni51" unicode="&#x51;" d="M1145 524Q1145 424 1122 340.50Q1099 257 1056 192L1233-10L1051-158L878 36Q820 7 753.50-7Q687-21 614-21Q373-21 229 123Q85 267 85 524L85 930Q85 1186 228.50 1331.50Q372 1477 613 1477Q854 1477 999.50 1331.50Q1145 1186 1145 930L1145 524M864 933Q864 1092 799.50 1173Q735 1254 613 1254Q490 1254 428 1173.50Q366 1093 366 933L366 524Q366 362 428.50 281Q491 200 614 200Q737 200 800.50 281Q864 362 864 524L864 933Z"  horiz-adv-x="1261" vert-adv-y="2048"  />

      
      <glyph glyph-name="uni52" unicode="&#x52;" d="M394 584L394 0L112 0L112 1455L548 1455Q765 1455 889.50 1342Q1014 1229 1014 1027Q1014 914 961.50 831Q909 748 810 699Q924 661 974 573Q1024 485 1024 353L1024 247Q1024 186 1038 119Q1052 52 1088 21L1088 0L796 0Q761 32 751.50 104.50Q742 177 742 249L742 351Q742 462 696 523Q650 584 564 584L394 584M394 804L546 804Q637 804 684.50 858.50Q732 913 732 1013Q732 1115 685 1175Q638 1235 548 1235L394 1235L394 804Z"  horiz-adv-x="1130" vert-adv-y="2048"  />

      
      <glyph glyph-name="uni53" unicode="&#x53;" d="M754 378Q754 465 709.50 515.50Q665 566 550 614Q326 693 213 793Q100 893 100 1073Q100 1252 229 1364.50Q358 1477 558 1477Q770 1477 899 1357Q1028 1237 1024 1035L1022 1029L748 1029Q748 1142 697.50 1200.50Q647 1259 553 1259Q472 1259 427 1205.50Q382 1152 382 1072Q382 998 433 950Q484 902 608 845Q819 775 927.50 668Q1036 561 1036 380Q1036 193 909 86Q782-21 572-21Q365-21 218 94.50Q71 210 76 446L78 452L353 452Q353 315 408.50 255Q464 195 572 195Q663 195 708.50 245Q754 295 754 378Z"  horiz-adv-x="1107" vert-adv-y="2048"  />

      
      <glyph glyph-name="uni54" unicode="&#x54;" d="M988 1235L646 1235L646 0L363 0L363 1235L30 1235L30 1456L988 1456L988 1235Z"  horiz-adv-x="1014" vert-adv-y="2048"  />

      
      <glyph glyph-name="uni55" unicode="&#x55;" d="M1128 1456L1128 505Q1128 257 985.50 118Q843-21 614-21Q386-21 244 118.50Q102 258 102 505L102 1456L383 1456L383 505Q383 356 445 277.50Q507 199 614 199Q723 199 784.50 277Q846 355 846 505L846 1456L1128 1456Z"  horiz-adv-x="1229" vert-adv-y="2048"  />

      
      <glyph glyph-name="uni56" unicode="&#x56;" d="M554 372L566 311L572 311L584 369L836 1456L1133 1456L716 0L423 0L8 1456L305 1456L554 372Z"  horiz-adv-x="1141" vert-adv-y="2048"  />

      
      <glyph glyph-name="uni57" unicode="&#x57;" d="M1103 533L1109 534L1258 1456L1545 1456L1260 0L998 0L785 902L779 902L567 0L305 0L18 1456L307 1456L456 532L462 531L671 1456L893 1456L1103 533Z"  horiz-adv-x="1566" vert-adv-y="2048"  />

      
      <glyph glyph-name="uni58" unicode="&#x58;" d="M565 941L571 941L778 1456L1105 1456L743 734L1129 0L788 0L574 526L568 526L355 0L27 0L398 734L35 1456L361 1456L565 941Z"  horiz-adv-x="1141" vert-adv-y="2048"  />

      
      <glyph glyph-name="uni59" unicode="&#x59;" d="M567 823L573 823L824 1456L1132 1456L707 519L707 0L426 0L426 537L9 1456L317 1456L567 823Z"  horiz-adv-x="1141" vert-adv-y="2048"  />

      
      <glyph glyph-name="uni5a" unicode="&#x5a;" d="M374 220L903 220L903 0L66 0L66 142L582 1235L62 1235L62 1456L892 1456L892 1319L374 220Z"  horiz-adv-x="966" vert-adv-y="2048"  />

      
      <glyph glyph-name="uni5b" unicode="&#x5b;" d="M510 1482L393 1482L393-127L510-127L510-337L108-337L108 1693L510 1693L510 1482Z"  horiz-adv-x="533" vert-adv-y="2048"  />

      
      <glyph glyph-name="uni5c" unicode="&#x5c;" d="M0 1456L278 1456L801-125L521-125L0 1456Z"  horiz-adv-x="765" vert-adv-y="2048"  />

      
      <glyph glyph-name="uni5d" unicode="&#x5d;" d="M19 1693L421 1693L421-337L19-337L19-127L137-127L137 1482L19 1482L19 1693Z"  horiz-adv-x="533" vert-adv-y="2048"  />

      
      <glyph glyph-name="uni5e" unicode="&#x5e;" d="M257 729L39 729L296 1456L501 1456L757 729L539 729L402 1153L399 1166L393 1166L391 1153L257 729Z"  horiz-adv-x="793" vert-adv-y="2048"  />

      
      <glyph glyph-name="uni5f" unicode="&#x5f;" d="M793-214L6-214L6 0L793 0L793-214Z"  horiz-adv-x="802" vert-adv-y="2048"  />

      
      <glyph glyph-name="uni60" unicode="&#x60;" d="M543 1252L297 1252L49 1512L52 1518L364 1518L543 1252Z"  horiz-adv-x="633" vert-adv-y="2048"  />

      
      <glyph glyph-name="uni61" unicode="&#x61;" d="M634 0Q618 36 607.50 78Q597 120 592 164Q556 83 497.50 31Q439-21 354-21Q206-21 126.50 65.50Q47 152 47 303Q47 461 151.50 548.50Q256 636 464 636L587 636L587 726Q587 807 557 850.50Q527 894 468 894Q416 894 389 859Q362 824 362 759L90 760L88 766Q82 906 193 1004Q304 1102 486 1102Q657 1102 763 1004Q869 906 869 724L869 280Q869 204 880 136Q891 68 914 0L634 0M427 188Q483 188 527 222.50Q571 257 587 306L587 476L464 476Q393 476 360.50 430Q328 384 328 314Q328 258 355 223Q382 188 427 188Z"  horiz-adv-x="957" vert-adv-y="2048"  />

      
      <glyph glyph-name="uni62" unicode="&#x62;" d="M952 514Q952 269 859.50 124Q767-21 589-21Q511-21 453 15.50Q395 52 354 121L335 0L94 0L94 1560L375 1560L375 986Q414 1042 467 1072Q520 1102 588 1102Q767 1102 859.50 948Q952 794 952 535L952 514M670 535Q670 698 637 789Q604 880 516 880Q467 880 431.50 855Q396 830 375 785L375 282Q396 241 431 220.50Q466 200 517 200Q606 200 638 280Q670 360 670 514L670 535Z"  horiz-adv-x="1008" vert-adv-y="2048"  />

      
      <glyph glyph-name="uni63" unicode="&#x63;" d="M492 199Q552 199 583 243.50Q614 288 614 371L869 371L872 365Q875 196 766.50 87.50Q658-21 492-21Q280-21 166.50 131.50Q53 284 53 526L53 555Q53 795 166.50 948.50Q280 1102 491 1102Q667 1102 771 989.50Q875 877 872 686L870 681L614 681Q614 771 583 826Q552 881 491 881Q403 881 369 791.50Q335 702 335 555L335 526Q335 375 369 287Q403 199 492 199Z"  horiz-adv-x="921" vert-adv-y="2048"  />

      
      <glyph glyph-name="uni64" unicode="&#x64;" d="M56 535Q56 790 151 946Q246 1102 420 1102Q485 1102 537.50 1071Q590 1040 631 983L631 1560L913 1560L913 0L672 0L651 122Q608 52 550 15.50Q492-21 418-21Q246-21 151 125.50Q56 272 56 514L56 535M336 514Q336 367 372 283.50Q408 200 491 200Q537 200 572.50 221.50Q608 243 631 285L631 782Q608 828 572 854Q536 880 492 880Q410 880 373 785Q336 690 336 535L336 514Z"  horiz-adv-x="1008" vert-adv-y="2048"  />

      
      <glyph glyph-name="uni65" unicode="&#x65;" d="M508-21Q294-21 176 127Q58 275 58 508L58 549Q58 794 171.50 948Q285 1102 491 1102Q682 1102 784 971Q886 840 886 615L886 461L340 461Q347 341 394.50 270Q442 199 541 199Q625 199 681.50 218.50Q738 238 803 280L876 104Q818 51 719.50 15Q621-21 508-21M491 881Q420 881 385.50 818.50Q351 756 342 647L610 647L610 672Q610 771 582.50 826Q555 881 491 881Z"  horiz-adv-x="937" vert-adv-y="2048"  />

      
      <glyph glyph-name="uni66" unicode="&#x66;" d="M158 0L158 881L23 881L23 1082L158 1082L158 1204Q158 1385 252.50 1483Q347 1581 519 1581Q552 1581 585 1575.50Q618 1570 661 1560L639 1348Q618 1353 599 1356Q580 1359 554 1359Q498 1359 469 1318.50Q440 1278 440 1204L440 1082L614 1082L614 881L440 881L440 0L158 0Z"  horiz-adv-x="638" vert-adv-y="2048"  />

      
      <glyph glyph-name="uni67" unicode="&#x67;" d="M57 535Q57 790 152 946Q247 1102 421 1102Q496 1102 552.50 1064.50Q609 1027 651 958L670 1082L915 1082L915 6Q915-205 791.50-321Q668-437 449-437Q377-437 297.50-415Q218-393 148-355L195-141Q255-173 315-189Q375-205 447-205Q541-205 586.50-153.50Q632-102 632 7L632 87Q591 34 538.50 6.50Q486-21 419-21Q247-21 152 125.50Q57 272 57 514L57 535M339 514Q339 366 374 283Q409 200 493 200Q541 200 575.50 220Q610 240 632 278L632 790Q609 833 574.50 856.50Q540 880 494 880Q412 880 375.50 785.50Q339 691 339 535L339 514Z"  horiz-adv-x="1008" vert-adv-y="2048"  />

      
      <glyph glyph-name="uni68" unicode="&#x68;" d="M368 951Q411 1023 471.50 1062.50Q532 1102 605 1102Q750 1102 834 988Q918 874 918 637L918 0L636 0L636 639Q636 773 606.50 826.50Q577 880 515 880Q466 880 429.50 860.50Q393 841 368 805L368 0L87 0L87 1560L368 1560L368 951Z"  horiz-adv-x="1008" vert-adv-y="2048"  />

      
      <glyph glyph-name="uni69" unicode="&#x69;" d="M389 0L107 0L107 1082L389 1082L389 0M389 1345L107 1345L107 1560L389 1560L389 1345Z"  horiz-adv-x="497" vert-adv-y="2048"  />

      
      <glyph glyph-name="uni6a" unicode="&#x6a;" d="M395 1082L395-37Q395-228 304-332.50Q213-437 52-437Q17-437-12-432.50Q-41-428-77-419L-64-202Q-41-208-23-211.50Q-5-215 17-215Q62-215 87.50-170Q113-125 113-37L113 1082L395 1082M390 1347L107 1347L107 1560L390 1560L390 1347Z"  horiz-adv-x="489" vert-adv-y="2048"  />

      
      <glyph glyph-name="uni6b" unicode="&#x6b;" d="M427 454L376 454L376 0L94 0L94 1560L376 1560L376 672L422 672L618 1082L943 1082L649 594L987 0L664 0L427 454Z"  horiz-adv-x="973" vert-adv-y="2048"  />

      
      <glyph glyph-name="uni6c" unicode="&#x6c;" d="M389 0L107 0L107 1560L389 1560L389 0Z"  horiz-adv-x="497" vert-adv-y="2048"  />

      
      <glyph glyph-name="uni6d" unicode="&#x6d;" d="M357 1082L368 943Q412 1019 478.50 1060.50Q545 1102 631 1102Q716 1102 778 1057.50Q840 1013 873 922Q916 1007 983.50 1054.50Q1051 1102 1141 1102Q1277 1102 1356 988Q1435 874 1435 639L1435 0L1153 0L1153 639Q1153 776 1124 828Q1095 880 1035 880Q991 880 957 854.50Q923 829 901 784Q902 759 903.50 741Q905 723 905 705L905 0L624 0L624 639Q624 774 595 827Q566 880 505 880Q464 880 431.50 859.50Q399 839 376 802L376 0L94 0L94 1082L357 1082Z"  horiz-adv-x="1530" vert-adv-y="2048"  />

      
      <glyph glyph-name="uni6e" unicode="&#x6e;" d="M352 1082L364 931Q410 1012 476.50 1057Q543 1102 625 1102Q763 1102 841.50 994.50Q920 887 920 657L920 0L638 0L638 657Q638 779 608.50 829.50Q579 880 519 880Q472 880 434.50 858Q397 836 371 796L371 0L89 0L89 1082L352 1082Z"  horiz-adv-x="1008" vert-adv-y="2048"  />

      
      <glyph glyph-name="uni6f" unicode="&#x6f;" d="M59 551Q59 795 175.50 948.50Q292 1102 503 1102Q713 1102 831 948.50Q949 795 949 551L949 528Q949 284 831.50 131.50Q714-21 505-21Q293-21 176 131Q59 283 59 528L59 551M340 528Q340 377 377.50 288Q415 199 505 199Q591 199 629 288Q667 377 667 528L667 551Q667 700 629 790.50Q591 881 503 881Q415 881 377.50 790Q340 699 340 551L340 528Z"  horiz-adv-x="1008" vert-adv-y="2048"  />

      
      <glyph glyph-name="uni70" unicode="&#x70;" d="M952 514Q952 272 856.50 125.50Q761-21 589-21Q520-21 467 6.50Q414 34 375 87L375-416L94-416L94 1082L352 1082L364 971Q404 1034 459 1068Q514 1102 587 1102Q761 1102 856.50 946Q952 790 952 535L952 514M670 535Q670 690 632 785Q594 880 514 880Q466 880 431 855.50Q396 831 375 787L375 277Q396 239 431 219Q466 199 515 199Q597 199 633.50 282.50Q670 366 670 514L670 535Z"  horiz-adv-x="1008" vert-adv-y="2048"  />

      
      <glyph glyph-name="uni71" unicode="&#x71;" d="M56 535Q56 790 151 946Q246 1102 420 1102Q494 1102 550 1066Q606 1030 648 962L670 1082L912 1082L912-416L629-416L629 85Q589 33 536.50 6Q484-21 418-21Q246-21 151 125.50Q56 272 56 514L56 535M336 514Q336 366 372 282.50Q408 199 491 199Q538 199 572 218Q606 237 629 274L629 793Q606 835 572 858Q538 881 492 881Q410 881 373 785.50Q336 690 336 535L336 514Z"  horiz-adv-x="1008" vert-adv-y="2048"  />

      
      <glyph glyph-name="uni72" unicode="&#x72;" d="M598 838L502 841Q455 841 423.50 816Q392 791 375 746L375 0L94 0L94 1082L357 1082L368 929Q399 1011 447.50 1056.50Q496 1102 559 1102Q578 1102 594 1098.50Q610 1095 627 1090L598 838Z"  horiz-adv-x="637" vert-adv-y="2048"  />

      
      <glyph glyph-name="uni73" unicode="&#x73;" d="M575 282Q575 330 538 364Q501 398 395 447Q230 509 147 586Q64 663 64 784Q64 916 169.50 1009Q275 1102 449 1102Q631 1102 739.50 1005.50Q848 909 843 762L841 756L569 756Q569 824 539 865.50Q509 907 448 907Q399 907 365.50 875Q332 843 332 797Q332 749 365 719.50Q398 690 509 638Q680 579 763.50 499.50Q847 420 847 293Q847 155 736.50 67Q626-21 445-21Q256-21 146 87Q36 195 41 332L44 338L300 338Q302 250 342 211.50Q382 173 452 173Q512 173 543.50 202.50Q575 232 575 282Z"  horiz-adv-x="899" vert-adv-y="2048"  />

      
      <glyph glyph-name="uni74" unicode="&#x74;" d="M424 1351L424 1082L571 1082L571 881L424 881L424 330Q424 261 444 232Q464 203 499 203Q519 203 532 205.50Q545 208 564 214L586 6Q546-8 509.50-14.50Q473-21 427-21Q289-21 215.50 63Q142 147 142 328L142 881L11 881L11 1082L142 1082L142 1351L424 1351Z"  horiz-adv-x="635" vert-adv-y="2048"  />

      
      <glyph glyph-name="uni75" unicode="&#x75;" d="M657 154Q614 70 549.50 24.50Q485-21 400-21Q254-21 170.50 96Q87 213 87 458L87 1082L369 1082L369 456Q369 311 397.50 255.50Q426 200 487 200Q536 200 573 218.50Q610 237 636 273L636 1082L919 1082L919 0L688 0L657 154Z"  horiz-adv-x="1008" vert-adv-y="2048"  />

      
      <glyph glyph-name="uni76" unicode="&#x76;" d="M444 400L457 318L463 318L478 400L610 1082L905 1082L597 0L322 0L13 1082L310 1082L444 400Z"  horiz-adv-x="920" vert-adv-y="2048"  />

      
      <glyph glyph-name="uni77" unicode="&#x77;" d="M898 479L904 479L1000 1082L1272 1082L1044 0L809 0L652 571L646 571L489 0L253 0L25 1082L296 1082L394 476L400 476L557 1082L740 1082L898 479Z"  horiz-adv-x="1301" vert-adv-y="2048"  />

      
      <glyph glyph-name="uni78" unicode="&#x78;" d="M456 736L462 736L583 1082L901 1082L628 547L910 0L593 0L466 357L460 357L334 0L16 0L298 547L24 1082L339 1082L456 736Z"  horiz-adv-x="920" vert-adv-y="2048"  />

      
      <glyph glyph-name="uni79" unicode="&#x79;" d="M444 437L444 434L450 434L612 1082L915 1082L542-163Q501-280 432-358.50Q363-437 221-437Q187-437 160.50-431.50Q134-426 86-414L120-207Q131-209 141.50-211Q152-213 162-213Q224-213 256.50-179Q289-145 304-90L331-7L5 1082L308 1082L444 437Z"  horiz-adv-x="920" vert-adv-y="2048"  />

      
      <glyph glyph-name="uni7a" unicode="&#x7a;" d="M397 220L850 220L850 0L68 0L68 165L509 861L81 861L81 1082L841 1082L841 921L397 220Z"  horiz-adv-x="920" vert-adv-y="2048"  />

      
      <glyph glyph-name="uni7b" unicode="&#x7b;" d="M499-367Q330-312 258-192Q186-72 186 98L186 304Q186 405 151 460.50Q116 516 43 516L43 713Q116 713 151 768Q186 823 186 924L186 1132Q186 1303 258 1422.50Q330 1542 499 1597L553 1444Q487 1412 461.50 1332.50Q436 1253 436 1132L436 924Q436 819 394.50 739Q353 659 269 614Q353 568 394.50 487.50Q436 407 436 304L436 98Q436-23 461-102Q486-181 552-213L499-367Z"  horiz-adv-x="593" vert-adv-y="2048"  />

      
      <glyph glyph-name="uni7c" unicode="&#x7c;" d="M343-270L126-270L126 1456L343 1456L343-270Z"  horiz-adv-x="469" vert-adv-y="2048"  />

      
      <glyph glyph-name="uni7d" unicode="&#x7d;" d="M40-213Q105-181 131-102Q157-23 157 98L157 304Q157 409 198.50 489Q240 569 326 614Q240 658 198.50 738Q157 818 157 924L157 1132Q157 1253 131 1332.50Q105 1412 40 1444L93 1597Q261 1542 333.50 1422.50Q406 1303 406 1132L406 924Q406 823 440.50 768Q475 713 549 713L549 516Q475 516 440.50 460Q406 404 406 304L406 98Q406-72 333.50-192Q261-312 93-367L40-213Z"  horiz-adv-x="593" vert-adv-y="2048"  />

      
      <glyph glyph-name="uni7e" unicode="&#x7e;" d="M1047 760Q1047 598 970 489Q893 380 775 380Q702 380 641 412Q580 444 513 515Q470 561 441.50 580.50Q413 600 377 600Q337 600 309.50 548Q282 496 282 420L90 446Q90 609 165.50 716Q241 823 361 823Q432 823 496.50 789.50Q561 756 625 690Q663 643 693 623Q723 603 759 603Q798 603 826 656.50Q854 710 854 787L1047 760Z"  horiz-adv-x="1139" vert-adv-y="2048"  />

      
      <glyph glyph-name="unia0" unicode="&#xa0;" d="Z"  horiz-adv-x="453" vert-adv-y="2048"  />

      
      <glyph glyph-name="unia1" unicode="&#xa1;" d="M409-374L126-374L126 577L409 577L409-374M407 825L128 825L128 1082L407 1082L407 825Z"  horiz-adv-x="535" vert-adv-y="2048"  />

      
      <glyph glyph-name="unia2" unicode="&#xa2;" d="M492 199Q552 199 583 243.50Q614 288 614 371L877 371Q877 234 806.50 134.50Q736 35 619-2L619-245L435-245L435-17Q250 4 151.50 152.50Q53 301 53 526L53 555Q53 778 151.50 927Q250 1076 435 1098L435 1318L619 1318L619 1084Q739 1046 808 941Q877 836 877 681L614 681Q614 771 583 826Q552 881 491 881Q403 881 369 791.50Q335 702 335 555L335 526Q335 375 369 287Q403 199 492 199Z"  horiz-adv-x="1042" vert-adv-y="2048"  />

      
      <glyph glyph-name="unia3" unicode="&#xa3;" d="M509 591L513 506Q513 426 483 352Q453 278 398 220L1012 220L1012 0L145 0L145 220L154 220Q191 232 209.50 316Q228 400 228 491L224 591L91 591L91 812L217 812L210 1026Q210 1237 316 1357Q422 1477 601 1477Q791 1477 896.50 1365Q1002 1253 999 1069L996 1063L723 1063Q723 1162 687.50 1209Q652 1256 600 1256Q549 1256 520.50 1196Q492 1136 492 1026L500 812L788 812L788 591L509 591Z"  horiz-adv-x="1068" vert-adv-y="2048"  />

      
      <glyph glyph-name="unia4" unicode="&#xa4;" d="M964 105Q895 44 813 12Q731-20 642-20Q552-20 469.50 12Q387 44 320 104L205-26L74 108L199 250Q154 326 130 417Q106 508 106 608Q106 711 132 805Q158 899 207 977L74 1129L205 1264L331 1121Q398 1175 477 1204.50Q556 1234 642 1234Q727 1234 806 1204Q885 1174 952 1119L1080 1265L1212 1129L1076 974Q1123 895 1149 802.50Q1175 710 1175 608Q1175 510 1151 419.50Q1127 329 1084 253L1212 108L1080-27L964 105M278 608Q278 418 383.50 287.50Q489 157 642 157Q792 157 898 287.50Q1004 418 1004 608Q1004 796 898 926Q792 1056 642 1056Q489 1056 383.50 926Q278 796 278 608Z"  horiz-adv-x="1278" vert-adv-y="2048"  />

      
      <glyph glyph-name="unia5" unicode="&#xa5;" d="M545 888L551 888L767 1456L1074 1456L748 735L946 735L946 575L685 575L685 445L946 445L946 286L685 286L685 0L404 0L404 286L125 286L125 445L404 445L404 575L125 575L125 735L348 735L21 1456L329 1456L545 888Z"  horiz-adv-x="1096" vert-adv-y="2048"  />

      
      <glyph glyph-name="unia6" unicode="&#xa6;" d="M111-270L111 521L360 521L360-270L111-270M360 698L111 698L111 1456L360 1456L360 698Z"  horiz-adv-x="469" vert-adv-y="2048"  />

      
      <glyph glyph-name="unia7" unicode="&#xa7;" d="M1032 479Q1032 388 994 320.50Q956 253 886 210Q950 159 982 88.50Q1014 18 1014-82Q1014-259 891-358.50Q768-458 560-458Q357-458 221-359Q85-260 90-42L92-36L366-36Q366-144 421-190.50Q476-237 560-237Q642-237 687-195Q732-153 732-83Q732-15 683 26Q634 67 498 116Q287 180 186 272Q85 364 85 534Q85 623 122.50 691Q160 759 232 804Q167 854 135 925Q103 996 103 1097Q103 1269 227 1373Q351 1477 560 1477Q773 1477 893.50 1365.50Q1014 1254 1010 1055L1008 1049L734 1049Q734 1139 688.50 1197.50Q643 1256 560 1256Q471 1256 428.50 1212Q386 1168 386 1099Q386 1023 430.50 983Q475 943 617 896Q830 833 931 740.50Q1032 648 1032 479M522 669Q496 676 470.50 685Q445 694 419 704Q392 682 379 645.50Q366 609 366 563Q366 481 409 439.50Q452 398 593 344Q623 334 647.50 326Q672 318 694 310Q723 333 739 369.50Q755 406 755 451Q755 525 706 570.50Q657 616 522 669Z"  horiz-adv-x="1129" vert-adv-y="2048"  />

      
      <glyph glyph-name="unia8" unicode="&#xa8;" d="M850 1259L600 1259L600 1456L850 1456L850 1259M395 1259L144 1259L144 1456L395 1456L395 1259Z"  horiz-adv-x="1009" vert-adv-y="2048"  />

      
      <glyph glyph-name="unia9" unicode="&#xa9;" d="M1002 596L1005 590Q1008 439 929 360.50Q850 282 707 282Q563 282 477.50 388.50Q392 495 392 669L392 788Q392 961 477.50 1068Q563 1175 707 1175Q850 1175 929.50 1095.50Q1009 1016 1006 867L1003 861L866 861Q866 958 826.50 1002.50Q787 1047 707 1047Q624 1047 580 976Q536 905 536 789L536 669Q536 550 580 479.50Q624 409 707 409Q787 409 826.50 452.50Q866 496 866 596L1002 596M194 729Q194 462 347.50 279.50Q501 97 721 97Q939 97 1092.50 279.50Q1246 462 1246 729Q1246 994 1092.50 1175.50Q939 1357 721 1357Q501 1357 347.50 1175.50Q194 994 194 729M82 729Q82 1044 268 1260Q454 1476 721 1476Q986 1476 1172.50 1260Q1359 1044 1359 729Q1359 413 1172 196Q985-21 721-21Q454-21 268 196Q82 413 82 729Z"  horiz-adv-x="1456" vert-adv-y="2048"  />

      
      <glyph glyph-name="uniaa" unicode="&#xaa;" d="M519 706Q512 727 507.50 751.50Q503 776 501 802Q473 754 426 723Q379 692 313 692Q211 692 155 753.50Q99 815 99 920Q99 1029 172.50 1089Q246 1149 387 1149L499 1149L499 1202Q499 1267 475 1302Q451 1337 405 1337Q352 1337 323.50 1309Q295 1281 295 1230L144 1243L142 1249Q137 1347 210 1412Q283 1477 405 1477Q522 1477 590.50 1406Q659 1335 659 1201L659 887Q659 836 664 792Q669 748 681 706L519 706M353 827Q394 827 439.50 859Q485 891 499 928L499 1037L388 1037Q327 1037 293.50 1004Q260 971 260 924Q260 877 283 852Q306 827 353 827Z"  horiz-adv-x="795" vert-adv-y="2048"  />

      
      <glyph glyph-name="uniab" unicode="&#xab;" d="M301 515L501 118L325 118L88 506L88 525L325 913L501 913L301 515M636 515L836 118L660 118L423 506L423 525L660 913L836 913L636 515Z"  horiz-adv-x="912" vert-adv-y="2048"  />

      
      <glyph glyph-name="uniac" unicode="&#xac;" d="M836 375L653 375L653 639L116 639L116 800L836 800L836 375Z"  horiz-adv-x="985" vert-adv-y="2048"  />

      
      <glyph glyph-name="uniad" unicode="&#xad;" d="M639 514L133 514L133 735L639 735L639 514Z"  horiz-adv-x="782" vert-adv-y="2048"  />

      
      <glyph glyph-name="uniae" unicode="&#xae;" d="M82 729Q82 1044 268 1260Q454 1476 720 1476Q985 1476 1172 1260Q1359 1044 1359 729Q1359 413 1172 196Q985-21 720-21Q454-21 268 196Q82 413 82 729M196 729Q196 462 349 279.50Q502 97 720 97Q939 97 1092.50 279.50Q1246 462 1246 729Q1246 994 1092.50 1175.50Q939 1357 720 1357Q501 1357 348.50 1175.50Q196 994 196 729M593 656L593 316L453 316L453 1166L708 1166Q844 1166 922.50 1098.50Q1001 1031 1001 905Q1001 847 974.50 803Q948 759 897 729Q951 699 975.50 644.50Q1000 590 1000 515L1000 459Q1000 417 1003 384.50Q1006 352 1015 332L1015 316L871 316Q863 337 861.50 377.50Q860 418 860 460L860 514Q860 587 830 621.50Q800 656 733 656L593 656M593 783L709 783Q773 783 817.50 815Q862 847 862 905Q862 979 828 1009Q794 1039 708 1039L593 1039L593 783Z"  horiz-adv-x="1455" vert-adv-y="2048"  />

      
      <glyph glyph-name="uniaf" unicode="&#xaf;" d="M807 1300L145 1300L145 1457L807 1457L807 1300Z"  horiz-adv-x="956" vert-adv-y="2048"  />

      
      <glyph glyph-name="uni02C9" unicode="&#x02C9;" d="M807 1300L145 1300L145 1457L807 1457L807 1300Z"  horiz-adv-x="956" vert-adv-y="2048"  />

      
      <glyph glyph-name="unib0" unicode="&#xb0;" d="M119 1204Q119 1316 191.50 1396.50Q264 1477 367 1477Q467 1477 539.50 1396.50Q612 1316 612 1204Q612 1091 539.50 1012.50Q467 934 367 934Q264 934 191.50 1012.50Q119 1091 119 1204M257 1204Q257 1149 289 1112Q321 1075 367 1075Q412 1075 443 1111.50Q474 1148 474 1204Q474 1260 443 1298.50Q412 1337 367 1337Q321 1337 289 1298.50Q257 1260 257 1204Z"  horiz-adv-x="734" vert-adv-y="2048"  />

      
      <glyph glyph-name="unib1" unicode="&#xb1;" d="M624 949L911 949L911 720L624 720L624 335L376 335L376 720L87 720L87 949L376 949L376 1313L624 1313L624 949M813-40L95-40L95 183L813 183L813-40Z"  horiz-adv-x="1005" vert-adv-y="2048"  />

      
      <glyph glyph-name="unib2" unicode="&#xb2;" d="M647 667L102 667L102 816L369 1071Q417 1122 431 1156.50Q445 1191 445 1234Q445 1275 427 1302Q409 1329 371 1329Q329 1329 308 1298Q287 1267 287 1217L99 1217L97 1223Q92 1329 169.50 1404Q247 1479 377 1479Q504 1479 573 1414.50Q642 1350 642 1233Q642 1150 593 1084.50Q544 1019 437 922L352 821L354 816L647 816L647 667Z"  horiz-adv-x="756" vert-adv-y="2048"  />

      
      <glyph glyph-name="unib3" unicode="&#xb3;" d="M356 1135Q405 1135 428.50 1161Q452 1187 452 1235Q452 1275 430.50 1301.50Q409 1328 367 1328Q326 1328 305.50 1305Q285 1282 285 1247L97 1247L95 1253Q89 1355 166 1416.50Q243 1478 362 1478Q495 1478 573 1418.50Q651 1359 651 1249Q651 1194 620 1148.50Q589 1103 535 1077Q596 1054 629.50 1006Q663 958 663 890Q663 778 585 716.50Q507 655 373 655Q242 655 160 717.50Q78 780 84 894L86 900L274 900Q274 855 298.50 829.50Q323 804 370 804Q412 804 438.50 829Q465 854 465 901Q465 953 437 981Q409 1009 356 1009L263 1009L263 1135L356 1135Z"  horiz-adv-x="749" vert-adv-y="2048"  />

      
      <glyph glyph-name="unib4" unicode="&#xb4;" d="M287 1518L601 1518L604 1512L352 1252L108 1252L287 1518Z"  horiz-adv-x="685" vert-adv-y="2048"  />

      
      <glyph glyph-name="unib5" unicode="&#xb5;" d="M403 1082L403 459Q403 310 437 256Q471 202 543 202Q599 202 637.50 227.50Q676 253 699 302L699 1082L980 1082L980 0L717 0L713 54Q677 17 632-2Q587-21 534-21Q496-21 463-11.50Q430-2 403 16L403-416L122-416L122 1082L403 1082Z"  horiz-adv-x="1124" vert-adv-y="2048"  />

      
      <glyph glyph-name="unib6" unicode="&#xb6;" d="M547 0L547 520L479 520Q279 520 167.50 649.50Q56 779 56 988Q56 1195 167.50 1325.50Q279 1456 479 1456L829 1456L829 0L547 0Z"  horiz-adv-x="960" vert-adv-y="2048"  />

      
      <glyph glyph-name="unib7" unicode="&#xb7;" d="M418 564L142 564L142 822L418 822L418 564Z"  horiz-adv-x="567" vert-adv-y="2048"  />

      
      <glyph glyph-name="unib8" unicode="&#xb8;" d="M323 6L313-53Q366-63 402-104Q438-145 438-225Q438-333 357-396.50Q276-460 127-460L121-302Q158-302 178.50-281Q199-260 199-216Q199-173 173-156Q147-139 84-134L112 6L323 6Z"  horiz-adv-x="496" vert-adv-y="2048"  />

      
      <glyph glyph-name="unib9" unicode="&#xb9;" d="M376 665L177 665L177 1302L71 1300L71 1454L376 1477L376 665Z"  horiz-adv-x="516" vert-adv-y="2048"  />

      
      <glyph glyph-name="uniba" unicode="&#xba;" d="M105 1142Q105 1290 187 1383.50Q269 1477 407 1477Q545 1477 627 1383.50Q709 1290 709 1142L709 1025Q709 876 627 783.50Q545 691 408 691Q269 691 187 783.50Q105 876 105 1025L105 1142M266 1025Q266 936 302 882Q338 828 408 828Q476 828 512 882Q548 936 548 1025L548 1142Q548 1228 511.50 1282.50Q475 1337 407 1337Q338 1337 302 1282.50Q266 1228 266 1142L266 1025Z"  horiz-adv-x="821" vert-adv-y="2048"  />

      
      <glyph glyph-name="unibb" unicode="&#xbb;" d="M296 550L70 914L246 914L486 588L531 588L512 550L531 513L486 513L246 186L70 186L296 550M642 550L416 914L592 914L832 588L877 588L858 550L877 513L832 513L592 186L416 186L642 550Z"  horiz-adv-x="912" vert-adv-y="2048"  />

      
      <glyph glyph-name="unibc" unicode="&#xbc;" d="M465 664L266 664L266 1301L160 1299L160 1453L465 1476L465 664M439 118L305 191L917 1329L1051 1256L439 118M1317 292L1395 292L1395 142L1317 142L1317 0L1118 0L1118 142L768 142L755 263L1118 799L1118 801L1317 801L1317 292M955 292L1118 292L1118 554L1112 556L1103 541L955 292Z"  horiz-adv-x="1281" vert-adv-y="2048"  />

      
      <glyph glyph-name="unibd" unicode="&#xbd;" d="M452 118L318 191L930 1329L1064 1256L452 118M465 664L266 664L266 1301L160 1299L160 1453L465 1476L465 664M1458 0L913 0L913 149L1180 404Q1228 455 1242 489.50Q1256 524 1256 567Q1256 608 1238 635Q1220 662 1182 662Q1140 662 1119 631Q1098 600 1098 550L910 550L908 556Q903 662 980.50 737Q1058 812 1188 812Q1315 812 1384 747.50Q1453 683 1453 566Q1453 483 1404 417.50Q1355 352 1248 255L1163 154L1165 149L1458 149L1458 0Z"  horiz-adv-x="1338" vert-adv-y="2048"  />

      
      <glyph glyph-name="unibe" unicode="&#xbe;" d="M622 118L488 191L1100 1329L1234 1256L622 118M1506 292L1584 292L1584 142L1506 142L1506 0L1307 0L1307 142L957 142L944 263L1307 799L1307 801L1506 801L1506 292M1144 292L1307 292L1307 554L1301 556L1292 541L1144 292M372 1136Q421 1136 444.50 1162Q468 1188 468 1236Q468 1276 446.50 1302.50Q425 1329 383 1329Q342 1329 321.50 1306Q301 1283 301 1248L113 1248L111 1254Q105 1356 182 1417.50Q259 1479 378 1479Q511 1479 589 1419.50Q667 1360 667 1250Q667 1195 636 1149.50Q605 1104 551 1078Q612 1055 645.50 1007Q679 959 679 891Q679 779 601 717.50Q523 656 389 656Q258 656 176 718.50Q94 781 100 895L102 901L290 901Q290 856 314.50 830.50Q339 805 386 805Q428 805 454.50 830Q481 855 481 902Q481 954 453 982Q425 1010 372 1010L279 1010L279 1136L372 1136Z"  horiz-adv-x="1486" vert-adv-y="2048"  />

      
      <glyph glyph-name="unibf" unicode="&#xbf;" d="M658 668Q656 531 618 466.50Q580 402 472 309Q413 251 379 183.50Q345 116 345 30Q345-64 383.50-117.50Q422-171 495-171Q550-171 590-124.50Q630-78 632 9L907 9L909 3Q910-191 794.50-292.50Q679-394 495-394Q292-394 177.50-280Q63-166 63 29Q63 154 127 260.50Q191 367 290 442Q342 487 359.50 535.50Q377 584 377 668L658 668M378 1082L658 1082L658 838L378 838L378 1082Z"  horiz-adv-x="917" vert-adv-y="2048"  />

      
      <glyph glyph-name="unic0" unicode="&#xc0;" d="M758 315L394 315L312 0L18 0L431 1456L723 1456L1136 0L841 0L758 315M452 537L700 537L579 999L573 999L452 537M708 1600L462 1600L214 1860L217 1866L529 1866L708 1600Z"  horiz-adv-x="1141" vert-adv-y="2048"  />

      
      <glyph glyph-name="unic1" unicode="&#xc1;" d="M758 315L394 315L312 0L18 0L431 1456L723 1456L1136 0L841 0L758 315M452 537L700 537L579 999L573 999L452 537M613 1866L927 1866L930 1860L678 1600L434 1600L613 1866Z"  horiz-adv-x="1141" vert-adv-y="2048"  />

      
      <glyph glyph-name="unic2" unicode="&#xc2;" d="M758 315L394 315L312 0L18 0L431 1456L723 1456L1136 0L841 0L758 315M452 537L700 537L579 999L573 999L452 537M908 1614L908 1592L688 1592L572 1727L456 1592L240 1592L240 1617L493 1854L652 1854L908 1614Z"  horiz-adv-x="1141" vert-adv-y="2048"  />

      
      <glyph glyph-name="unic3" unicode="&#xc3;" d="M758 315L394 315L312 0L18 0L431 1456L723 1456L1136 0L841 0L758 315M452 537L700 537L579 999L573 999L452 537M902 1852Q902 1758 850 1691.50Q798 1625 719 1625Q658 1625 580 1669.50Q502 1714 458 1714Q429 1714 409.50 1681.50Q390 1649 390 1602L242 1644Q242 1736 294 1804Q346 1872 425 1872Q472 1872 557 1827.50Q642 1783 686 1783Q714 1783 734.50 1815.50Q755 1848 755 1896L902 1852Z"  horiz-adv-x="1141" vert-adv-y="2048"  />

      
      <glyph glyph-name="unic4" unicode="&#xc4;" d="M758 315L394 315L312 0L18 0L431 1456L723 1456L1136 0L841 0L758 315M452 537L700 537L579 999L573 999L452 537M924 1607L674 1607L674 1804L924 1804L924 1607M469 1607L218 1607L218 1804L469 1804L469 1607Z"  horiz-adv-x="1141" vert-adv-y="2048"  />

      
      <glyph glyph-name="unic5" unicode="&#xc5;" d="M758 315L394 315L312 0L18 0L431 1456L723 1456L1136 0L841 0L758 315M452 537L700 537L579 999L573 999L452 537M400 1745Q400 1816 449.50 1865.50Q499 1915 572 1915Q644 1915 693.50 1866Q743 1817 743 1745Q743 1672 694 1625.50Q645 1579 572 1579Q499 1579 449.50 1626Q400 1673 400 1745M508 1745Q508 1714 526 1693.50Q544 1673 572 1673Q598 1673 615.50 1693Q633 1713 633 1745Q633 1777 616 1798Q599 1819 572 1819Q544 1819 526 1798Q508 1777 508 1745Z"  horiz-adv-x="1141" vert-adv-y="2048"  />

      
      <glyph glyph-name="unic6" unicode="&#xc6;" d="M1619 0L836 0L824 341L483 341L342 0L14 0L667 1456L1567 1456L1567 1232L1073 1232L1086 859L1497 859L1497 636L1094 636L1110 223L1619 223L1619 0M579 573L815 573L797 1087L791 1088L579 573Z"  horiz-adv-x="1689" vert-adv-y="2048"  />

      
      <glyph glyph-name="unic7" unicode="&#xc7;" d="M1066 452L1068 446Q1072 212 948.50 95.50Q825-21 596-21Q361-21 223 117.50Q85 256 85 511L85 943Q85 1197 218.50 1337Q352 1477 579 1477Q818 1477 946 1361Q1074 1245 1070 1010L1068 1004L794 1004Q794 1144 744.50 1200Q695 1256 579 1256Q473 1256 420 1179.50Q367 1103 367 945L367 511Q367 352 424 275.50Q481 199 596 199Q701 199 747 254.50Q793 310 793 452L1066 452M689 4L679-55Q732-65 768-106Q804-147 804-227Q804-335 723-398.50Q642-462 493-462L487-304Q524-304 544.50-283Q565-262 565-218Q565-175 539-158Q513-141 450-136L478 4L689 4Z"  horiz-adv-x="1133" vert-adv-y="2048"  />

      
      <glyph glyph-name="unic8" unicode="&#xc8;" d="M839 643L394 643L394 220L927 220L927 0L112 0L112 1456L925 1456L925 1235L394 1235L394 863L839 863L839 643M657 1600L411 1600L163 1860L166 1866L478 1866L657 1600Z"  horiz-adv-x="994" vert-adv-y="2048"  />

      
      <glyph glyph-name="unic9" unicode="&#xc9;" d="M839 643L394 643L394 220L927 220L927 0L112 0L112 1456L925 1456L925 1235L394 1235L394 863L839 863L839 643M562 1866L876 1866L879 1860L627 1600L383 1600L562 1866Z"  horiz-adv-x="994" vert-adv-y="2048"  />

      
      <glyph glyph-name="unica" unicode="&#xca;" d="M839 643L394 643L394 220L927 220L927 0L112 0L112 1456L925 1456L925 1235L394 1235L394 863L839 863L839 643M857 1614L857 1592L637 1592L521 1727L405 1592L189 1592L189 1617L442 1854L601 1854L857 1614Z"  horiz-adv-x="994" vert-adv-y="2048"  />

      
      <glyph glyph-name="unicb" unicode="&#xcb;" d="M839 643L394 643L394 220L927 220L927 0L112 0L112 1456L925 1456L925 1235L394 1235L394 863L839 863L839 643M873 1607L623 1607L623 1804L873 1804L873 1607M418 1607L167 1607L167 1804L418 1804L418 1607Z"  horiz-adv-x="994" vert-adv-y="2048"  />

      
      <glyph glyph-name="unicc" unicode="&#xcc;" d="M409 0L128 0L128 1456L409 1456L409 0M406 1600L160 1600L-88 1860L-85 1866L227 1866L406 1600Z"  horiz-adv-x="538" vert-adv-y="2048"  />

      
      <glyph glyph-name="unicd" unicode="&#xcd;" d="M409 0L128 0L128 1456L409 1456L409 0M310 1866L624 1866L627 1860L375 1600L131 1600L310 1866Z"  horiz-adv-x="538" vert-adv-y="2048"  />

      
      <glyph glyph-name="unice" unicode="&#xce;" d="M409 0L128 0L128 1456L409 1456L409 0M606 1614L606 1592L386 1592L270 1727L154 1592L-62 1592L-62 1617L191 1854L350 1854L606 1614Z"  horiz-adv-x="538" vert-adv-y="2048"  />

      
      <glyph glyph-name="unicf" unicode="&#xcf;" d="M409 0L128 0L128 1456L409 1456L409 0M622 1607L372 1607L372 1804L622 1804L622 1607M167 1607L-84 1607L-84 1804L167 1804L167 1607Z"  horiz-adv-x="538" vert-adv-y="2048"  />

      
      <glyph glyph-name="unid0" unicode="&#xd0;" d="M112 0L112 655L-1 655L-1 827L112 827L112 1456L561 1456Q789 1456 938 1285.50Q1087 1115 1087 848L1087 607Q1087 339 938 169.50Q789 0 561 0L112 0M587 655L394 655L394 220L561 220Q670 220 737 328Q804 436 804 607L804 850Q804 1019 737 1127Q670 1235 561 1235L394 1235L394 827L587 827L587 655Z"  horiz-adv-x="1173" vert-adv-y="2048"  />

      
      <glyph glyph-name="unid1" unicode="&#xd1;" d="M1144 0L862 0L400 929L394 928L394 0L112 0L112 1456L394 1456L856 526L862 527L862 1456L1144 1456L1144 0M957 1852Q957 1758 905 1691.50Q853 1625 774 1625Q713 1625 635 1669.50Q557 1714 513 1714Q484 1714 464.50 1681.50Q445 1649 445 1602L297 1644Q297 1736 349 1804Q401 1872 480 1872Q527 1872 612 1827.50Q697 1783 741 1783Q769 1783 789.50 1815.50Q810 1848 810 1896L957 1852Z"  horiz-adv-x="1256" vert-adv-y="2048"  />

      
      <glyph glyph-name="unid2" unicode="&#xd2;" d="M1145 524Q1145 267 1000 123Q855-21 614-21Q373-21 229 123Q85 267 85 524L85 930Q85 1186 228.50 1331.50Q372 1477 613 1477Q854 1477 999.50 1331.50Q1145 1186 1145 930L1145 524M864 933Q864 1092 799.50 1173Q735 1254 613 1254Q490 1254 428 1173.50Q366 1093 366 933L366 524Q366 362 428.50 281Q491 200 614 200Q737 200 800.50 281Q864 362 864 524L864 933M752 1621L506 1621L258 1881L261 1887L573 1887L752 1621Z"  horiz-adv-x="1230" vert-adv-y="2048"  />

      
      <glyph glyph-name="unid3" unicode="&#xd3;" d="M1145 524Q1145 267 1000 123Q855-21 614-21Q373-21 229 123Q85 267 85 524L85 930Q85 1186 228.50 1331.50Q372 1477 613 1477Q854 1477 999.50 1331.50Q1145 1186 1145 930L1145 524M864 933Q864 1092 799.50 1173Q735 1254 613 1254Q490 1254 428 1173.50Q366 1093 366 933L366 524Q366 362 428.50 281Q491 200 614 200Q737 200 800.50 281Q864 362 864 524L864 933M657 1887L971 1887L974 1881L722 1621L478 1621L657 1887Z"  horiz-adv-x="1230" vert-adv-y="2048"  />

      
      <glyph glyph-name="unid4" unicode="&#xd4;" d="M1145 524Q1145 267 1000 123Q855-21 614-21Q373-21 229 123Q85 267 85 524L85 930Q85 1186 228.50 1331.50Q372 1477 613 1477Q854 1477 999.50 1331.50Q1145 1186 1145 930L1145 524M864 933Q864 1092 799.50 1173Q735 1254 613 1254Q490 1254 428 1173.50Q366 1093 366 933L366 524Q366 362 428.50 281Q491 200 614 200Q737 200 800.50 281Q864 362 864 524L864 933M952 1635L952 1613L732 1613L616 1748L500 1613L284 1613L284 1638L537 1875L696 1875L952 1635Z"  horiz-adv-x="1230" vert-adv-y="2048"  />

      
      <glyph glyph-name="unid5" unicode="&#xd5;" d="M1145 524Q1145 267 1000 123Q855-21 614-21Q373-21 229 123Q85 267 85 524L85 930Q85 1186 228.50 1331.50Q372 1477 613 1477Q854 1477 999.50 1331.50Q1145 1186 1145 930L1145 524M864 933Q864 1092 799.50 1173Q735 1254 613 1254Q490 1254 428 1173.50Q366 1093 366 933L366 524Q366 362 428.50 281Q491 200 614 200Q737 200 800.50 281Q864 362 864 524L864 933M946 1873Q946 1779 894 1712.50Q842 1646 763 1646Q702 1646 624 1690.50Q546 1735 502 1735Q473 1735 453.50 1702.50Q434 1670 434 1623L286 1665Q286 1757 338 1825Q390 1893 469 1893Q516 1893 601 1848.50Q686 1804 730 1804Q758 1804 778.50 1836.50Q799 1869 799 1917L946 1873Z"  horiz-adv-x="1230" vert-adv-y="2048"  />

      
      <glyph glyph-name="unid6" unicode="&#xd6;" d="M1145 524Q1145 267 1000 123Q855-21 614-21Q373-21 229 123Q85 267 85 524L85 930Q85 1186 228.50 1331.50Q372 1477 613 1477Q854 1477 999.50 1331.50Q1145 1186 1145 930L1145 524M864 933Q864 1092 799.50 1173Q735 1254 613 1254Q490 1254 428 1173.50Q366 1093 366 933L366 524Q366 362 428.50 281Q491 200 614 200Q737 200 800.50 281Q864 362 864 524L864 933M968 1628L718 1628L718 1825L968 1825L968 1628M513 1628L262 1628L262 1825L513 1825L513 1628Z"  horiz-adv-x="1230" vert-adv-y="2048"  />

      
      <glyph glyph-name="unid7" unicode="&#xd7;" d="M60 367L339 684L59 1002L224 1161L492 857L760 1161L925 1002L644 684L924 367L760 208L492 511L225 208L60 367Z"  horiz-adv-x="991" vert-adv-y="2048"  />

      
      <glyph glyph-name="unid8" unicode="&#xd8;" d="M1145 524Q1145 267 1000 123Q855-21 614-21Q544-21 481.50-8.50Q419 4 365 29L304-93L175-93L266 90Q178 160 131.50 270Q85 380 85 524L85 930Q85 1186 228.50 1331.50Q372 1477 613 1477Q700 1477 777 1456.50Q854 1436 918 1397L978 1516L1106 1516L1009 1322Q1074 1250 1109.50 1151Q1145 1052 1145 930L1145 524M366 524Q366 469 372.50 425.50Q379 382 392 355L397 354L804 1168Q771 1210 723 1232Q675 1254 613 1254Q490 1254 428 1173.50Q366 1093 366 933L366 524M864 933Q864 956 862.50 976Q861 996 859 1008L853 1009L470 241Q498 220 534 210Q570 200 614 200Q737 200 800.50 281Q864 362 864 524L864 933Z"  horiz-adv-x="1232" vert-adv-y="2048"  />

      
      <glyph glyph-name="unid9" unicode="&#xd9;" d="M1128 1456L1128 505Q1128 257 985.50 118Q843-21 614-21Q386-21 244 118.50Q102 258 102 505L102 1456L383 1456L383 505Q383 356 445 277.50Q507 199 614 199Q723 199 784.50 277Q846 355 846 505L846 1456L1128 1456M751 1600L505 1600L257 1860L260 1866L572 1866L751 1600Z"  horiz-adv-x="1229" vert-adv-y="2048"  />

      
      <glyph glyph-name="unida" unicode="&#xda;" d="M1128 1456L1128 505Q1128 257 985.50 118Q843-21 614-21Q386-21 244 118.50Q102 258 102 505L102 1456L383 1456L383 505Q383 356 445 277.50Q507 199 614 199Q723 199 784.50 277Q846 355 846 505L846 1456L1128 1456M656 1866L970 1866L973 1860L721 1600L477 1600L656 1866Z"  horiz-adv-x="1229" vert-adv-y="2048"  />

      
      <glyph glyph-name="unidb" unicode="&#xdb;" d="M1128 1456L1128 505Q1128 257 985.50 118Q843-21 614-21Q386-21 244 118.50Q102 258 102 505L102 1456L383 1456L383 505Q383 356 445 277.50Q507 199 614 199Q723 199 784.50 277Q846 355 846 505L846 1456L1128 1456M951 1614L951 1592L731 1592L615 1727L499 1592L283 1592L283 1617L536 1854L695 1854L951 1614Z"  horiz-adv-x="1229" vert-adv-y="2048"  />

      
      <glyph glyph-name="unidc" unicode="&#xdc;" d="M1128 1456L1128 505Q1128 257 985.50 118Q843-21 614-21Q386-21 244 118.50Q102 258 102 505L102 1456L383 1456L383 505Q383 356 445 277.50Q507 199 614 199Q723 199 784.50 277Q846 355 846 505L846 1456L1128 1456M967 1607L717 1607L717 1804L967 1804L967 1607M512 1607L261 1607L261 1804L512 1804L512 1607Z"  horiz-adv-x="1229" vert-adv-y="2048"  />

      
      <glyph glyph-name="unidd" unicode="&#xdd;" d="M567 823L573 823L824 1456L1132 1456L707 519L707 0L426 0L426 537L9 1456L317 1456L567 823M618 1864L932 1864L935 1858L683 1598L439 1598L618 1864Z"  horiz-adv-x="1141" vert-adv-y="2048"  />

      
      <glyph glyph-name="unide" unicode="&#xde;" d="M393 1456L393 1185L565 1185Q790 1185 915 1061.50Q1040 938 1040 738Q1040 536 915 413Q790 290 565 290L393 290L393 0L111 0L111 1456L393 1456M393 966L393 510L565 510Q662 510 710 574.50Q758 639 758 736Q758 833 710 899Q662 965 565 965L394 965L393 966Z"  horiz-adv-x="1093" vert-adv-y="2048"  />

      
      <glyph glyph-name="unidf" unicode="&#xdf;" d="M401 0L120 0L120 1102Q120 1325 235.50 1445.50Q351 1566 553 1566Q714 1566 821.50 1471Q929 1376 929 1204Q929 1098 885 1002.50Q841 907 841 834Q841 778 963.50 637Q1086 496 1086 355Q1086 166 985.50 72.50Q885-21 687-21Q619-21 553.50-6Q488 9 453 35L503 253Q535 230 581.50 214.50Q628 199 685 199Q741 199 773 238Q805 277 805 345Q805 417 683 550.50Q561 684 561 824Q561 917 605.50 1016Q650 1115 650 1191Q650 1256 613 1301.50Q576 1347 529 1347Q472 1347 436.50 1280Q401 1213 401 1098L401 0Z"  horiz-adv-x="1144" vert-adv-y="2048"  />

      
      <glyph glyph-name="unie0" unicode="&#xe0;" d="M634 0Q618 36 607.50 78Q597 120 592 164Q556 83 497.50 31Q439-21 354-21Q206-21 126.50 65.50Q47 152 47 303Q47 461 151.50 548.50Q256 636 464 636L587 636L587 726Q587 807 557 850.50Q527 894 468 894Q416 894 389 859Q362 824 362 759L90 760L88 766Q82 906 193 1004Q304 1102 486 1102Q657 1102 763 1004Q869 906 869 724L869 280Q869 204 880 136Q891 68 914 0L634 0M427 188Q483 188 527 222.50Q571 257 587 306L587 476L464 476Q393 476 360.50 430Q328 384 328 314Q328 258 355 223Q382 188 427 188M613 1278L367 1278L119 1538L122 1544L434 1544L613 1278Z"  horiz-adv-x="957" vert-adv-y="2048"  />

      
      <glyph glyph-name="unie1" unicode="&#xe1;" d="M634 0Q618 36 607.50 78Q597 120 592 164Q556 83 497.50 31Q439-21 354-21Q206-21 126.50 65.50Q47 152 47 303Q47 461 151.50 548.50Q256 636 464 636L587 636L587 726Q587 807 557 850.50Q527 894 468 894Q416 894 389 859Q362 824 362 759L90 760L88 766Q82 906 193 1004Q304 1102 486 1102Q657 1102 763 1004Q869 906 869 724L869 280Q869 204 880 136Q891 68 914 0L634 0M427 188Q483 188 527 222.50Q571 257 587 306L587 476L464 476Q393 476 360.50 430Q328 384 328 314Q328 258 355 223Q382 188 427 188M518 1544L832 1544L835 1538L583 1278L339 1278L518 1544Z"  horiz-adv-x="957" vert-adv-y="2048"  />

      
      <glyph glyph-name="unie2" unicode="&#xe2;" d="M634 0Q618 36 607.50 78Q597 120 592 164Q556 83 497.50 31Q439-21 354-21Q206-21 126.50 65.50Q47 152 47 303Q47 461 151.50 548.50Q256 636 464 636L587 636L587 726Q587 807 557 850.50Q527 894 468 894Q416 894 389 859Q362 824 362 759L90 760L88 766Q82 906 193 1004Q304 1102 486 1102Q657 1102 763 1004Q869 906 869 724L869 280Q869 204 880 136Q891 68 914 0L634 0M427 188Q483 188 527 222.50Q571 257 587 306L587 476L464 476Q393 476 360.50 430Q328 384 328 314Q328 258 355 223Q382 188 427 188M813 1292L813 1270L593 1270L477 1405L361 1270L145 1270L145 1295L398 1532L557 1532L813 1292Z"  horiz-adv-x="957" vert-adv-y="2048"  />

      
      <glyph glyph-name="unie3" unicode="&#xe3;" d="M634 0Q618 36 607.50 78Q597 120 592 164Q556 83 497.50 31Q439-21 354-21Q206-21 126.50 65.50Q47 152 47 303Q47 461 151.50 548.50Q256 636 464 636L587 636L587 726Q587 807 557 850.50Q527 894 468 894Q416 894 389 859Q362 824 362 759L90 760L88 766Q82 906 193 1004Q304 1102 486 1102Q657 1102 763 1004Q869 906 869 724L869 280Q869 204 880 136Q891 68 914 0L634 0M427 188Q483 188 527 222.50Q571 257 587 306L587 476L464 476Q393 476 360.50 430Q328 384 328 314Q328 258 355 223Q382 188 427 188M807 1530Q807 1436 755 1369.50Q703 1303 624 1303Q563 1303 485 1347.50Q407 1392 363 1392Q334 1392 314.50 1359.50Q295 1327 295 1280L147 1322Q147 1414 199 1482Q251 1550 330 1550Q377 1550 462 1505.50Q547 1461 591 1461Q619 1461 639.50 1493.50Q660 1526 660 1574L807 1530Z"  horiz-adv-x="957" vert-adv-y="2048"  />

      
      <glyph glyph-name="unie4" unicode="&#xe4;" d="M634 0Q618 36 607.50 78Q597 120 592 164Q556 83 497.50 31Q439-21 354-21Q206-21 126.50 65.50Q47 152 47 303Q47 461 151.50 548.50Q256 636 464 636L587 636L587 726Q587 807 557 850.50Q527 894 468 894Q416 894 389 859Q362 824 362 759L90 760L88 766Q82 906 193 1004Q304 1102 486 1102Q657 1102 763 1004Q869 906 869 724L869 280Q869 204 880 136Q891 68 914 0L634 0M427 188Q483 188 527 222.50Q571 257 587 306L587 476L464 476Q393 476 360.50 430Q328 384 328 314Q328 258 355 223Q382 188 427 188M830 1285L580 1285L580 1482L830 1482L830 1285M375 1285L124 1285L124 1482L375 1482L375 1285Z"  horiz-adv-x="957" vert-adv-y="2048"  />

      
      <glyph glyph-name="unie5" unicode="&#xe5;" d="M634 0Q618 36 607.50 78Q597 120 592 164Q556 83 497.50 31Q439-21 354-21Q206-21 126.50 65.50Q47 152 47 303Q47 461 151.50 548.50Q256 636 464 636L587 636L587 726Q587 807 557 850.50Q527 894 468 894Q416 894 389 859Q362 824 362 759L90 760L88 766Q82 906 193 1004Q304 1102 486 1102Q657 1102 763 1004Q869 906 869 724L869 280Q869 204 880 136Q891 68 914 0L634 0M427 188Q483 188 527 222.50Q571 257 587 306L587 476L464 476Q393 476 360.50 430Q328 384 328 314Q328 258 355 223Q382 188 427 188M305 1423Q305 1494 354.50 1543.50Q404 1593 477 1593Q549 1593 598.50 1544Q648 1495 648 1423Q648 1350 599 1303.50Q550 1257 477 1257Q404 1257 354.50 1304Q305 1351 305 1423M413 1423Q413 1392 431 1371.50Q449 1351 477 1351Q503 1351 520.50 1371Q538 1391 538 1423Q538 1455 521 1476Q504 1497 477 1497Q449 1497 431 1476Q413 1455 413 1423Z"  horiz-adv-x="957" vert-adv-y="2048"  />

      
      <glyph glyph-name="unie6" unicode="&#xe6;" d="M1105-21Q995-21 909 17.50Q823 56 764 129Q711 63 625.50 21Q540-21 425-21Q256-21 163.50 69.50Q71 160 71 316Q71 473 183.50 558.50Q296 644 510 644L650 644L650 706Q650 788 619.50 834.50Q589 881 533 881Q471 881 436.50 842.50Q402 804 402 746L128 763L126 769Q121 913 234.50 1007.50Q348 1102 536 1102Q621 1102 692 1078Q763 1054 815 1008Q868 1053 936 1077.50Q1004 1102 1087 1102Q1272 1102 1378 971Q1484 840 1484 616L1484 459L935 459Q940 337 988.50 268Q1037 199 1138 199Q1216 199 1267 218.50Q1318 238 1385 279L1456 101Q1403 52 1307.50 15.50Q1212-21 1105-21M481 179Q523 179 571.50 206Q620 233 650 272L650 466L512 466Q437 466 394.50 421Q352 376 352 312Q352 249 384 214Q416 179 481 179M1087 881Q1012 881 977 818.50Q942 756 936 643L1207 643L1207 671Q1207 767 1176.50 824Q1146 881 1087 881Z"  horiz-adv-x="1532" vert-adv-y="2048"  />

      
      <glyph glyph-name="unie7" unicode="&#xe7;" d="M492 199Q552 199 583 243.50Q614 288 614 371L869 371L872 365Q875 196 766.50 87.50Q658-21 492-21Q280-21 166.50 131.50Q53 284 53 526L53 555Q53 795 166.50 948.50Q280 1102 491 1102Q667 1102 771 989.50Q875 877 872 686L870 681L614 681Q614 771 583 826Q552 881 491 881Q403 881 369 791.50Q335 702 335 555L335 526Q335 375 369 287Q403 199 492 199M597 4L587-55Q640-65 676-106Q712-147 712-227Q712-335 631-398.50Q550-462 401-462L395-304Q432-304 452.50-283Q473-262 473-218Q473-175 447-158Q421-141 358-136L386 4L597 4Z"  horiz-adv-x="921" vert-adv-y="2048"  />

      
      <glyph glyph-name="unie8" unicode="&#xe8;" d="M508-21Q294-21 176 127Q58 275 58 508L58 549Q58 794 171.50 948Q285 1102 491 1102Q682 1102 784 971Q886 840 886 615L886 461L340 461Q347 341 394.50 270Q442 199 541 199Q625 199 681.50 218.50Q738 238 803 280L876 104Q818 51 719.50 15Q621-21 508-21M491 881Q420 881 385.50 818.50Q351 756 342 647L610 647L610 672Q610 771 582.50 826Q555 881 491 881M605 1279L359 1279L111 1539L114 1545L426 1545L605 1279Z"  horiz-adv-x="937" vert-adv-y="2048"  />

      
      <glyph glyph-name="unie9" unicode="&#xe9;" d="M508-21Q294-21 176 127Q58 275 58 508L58 549Q58 794 171.50 948Q285 1102 491 1102Q682 1102 784 971Q886 840 886 615L886 461L340 461Q347 341 394.50 270Q442 199 541 199Q625 199 681.50 218.50Q738 238 803 280L876 104Q818 51 719.50 15Q621-21 508-21M491 881Q420 881 385.50 818.50Q351 756 342 647L610 647L610 672Q610 771 582.50 826Q555 881 491 881M510 1545L824 1545L827 1539L575 1279L331 1279L510 1545Z"  horiz-adv-x="937" vert-adv-y="2048"  />

      
      <glyph glyph-name="uniea" unicode="&#xea;" d="M508-21Q294-21 176 127Q58 275 58 508L58 549Q58 794 171.50 948Q285 1102 491 1102Q682 1102 784 971Q886 840 886 615L886 461L340 461Q347 341 394.50 270Q442 199 541 199Q625 199 681.50 218.50Q738 238 803 280L876 104Q818 51 719.50 15Q621-21 508-21M491 881Q420 881 385.50 818.50Q351 756 342 647L610 647L610 672Q610 771 582.50 826Q555 881 491 881M805 1293L805 1271L585 1271L469 1406L353 1271L137 1271L137 1296L390 1533L549 1533L805 1293Z"  horiz-adv-x="937" vert-adv-y="2048"  />

      
      <glyph glyph-name="unieb" unicode="&#xeb;" d="M508-21Q294-21 176 127Q58 275 58 508L58 549Q58 794 171.50 948Q285 1102 491 1102Q682 1102 784 971Q886 840 886 615L886 461L340 461Q347 341 394.50 270Q442 199 541 199Q625 199 681.50 218.50Q738 238 803 280L876 104Q818 51 719.50 15Q621-21 508-21M491 881Q420 881 385.50 818.50Q351 756 342 647L610 647L610 672Q610 771 582.50 826Q555 881 491 881M822 1286L572 1286L572 1483L822 1483L822 1286M367 1286L116 1286L116 1483L367 1483L367 1286Z"  horiz-adv-x="937" vert-adv-y="2048"  />

      
      <glyph glyph-name="uniec" unicode="&#xec;" d="M397 0L114 0L114 1082L397 1082L397 0M394 1257L148 1257L-100 1517L-97 1523L215 1523L394 1257Z"  horiz-adv-x="514" vert-adv-y="2048"  />

      
      <glyph glyph-name="unied" unicode="&#xed;" d="M397 0L114 0L114 1082L397 1082L397 0M298 1523L612 1523L615 1517L363 1257L119 1257L298 1523Z"  horiz-adv-x="514" vert-adv-y="2048"  />

      
      <glyph glyph-name="uniee" unicode="&#xee;" d="M397 0L114 0L114 1082L397 1082L397 0M594 1272L594 1250L374 1250L258 1385L142 1250L-74 1250L-74 1275L179 1512L338 1512L594 1272Z"  horiz-adv-x="514" vert-adv-y="2048"  />

      
      <glyph glyph-name="unief" unicode="&#xef;" d="M397 0L114 0L114 1082L397 1082L397 0M610 1264L360 1264L360 1461L610 1461L610 1264M155 1264L-96 1264L-96 1461L155 1461L155 1264Z"  horiz-adv-x="514" vert-adv-y="2048"  />

      
      <glyph glyph-name="unif0" unicode="&#xf0;" d="M802 1293Q896 1187 948 1047Q1000 907 1000 741L1000 547Q1000 297 860.50 138Q721-21 513-21Q303-21 171 118.50Q39 258 39 465Q39 692 155 828Q271 964 474 964Q540 964 598.50 941Q657 918 700 879L704 883Q691 962 659 1029.50Q627 1097 580 1150L379 1021L308 1130L476 1238Q444 1258 409 1275Q374 1292 338 1306L427 1517Q503 1497 573 1463.50Q643 1430 703 1384L871 1492L942 1383L802 1293M517 199Q610 199 664 296Q718 393 718 547L718 663Q690 703 640 729.50Q590 756 523 756Q426 756 373 676.50Q320 597 320 465Q320 353 374 276Q428 199 517 199Z"  horiz-adv-x="1066" vert-adv-y="2048"  />

      
      <glyph glyph-name="unif1" unicode="&#xf1;" d="M352 1082L364 931Q410 1012 476.50 1057Q543 1102 625 1102Q763 1102 841.50 994.50Q920 887 920 657L920 0L638 0L638 657Q638 779 608.50 829.50Q579 880 519 880Q472 880 434.50 858Q397 836 371 796L371 0L89 0L89 1082L352 1082M833 1530Q833 1436 781 1369.50Q729 1303 650 1303Q589 1303 511 1347.50Q433 1392 389 1392Q360 1392 340.50 1359.50Q321 1327 321 1280L173 1322Q173 1414 225 1482Q277 1550 356 1550Q403 1550 488 1505.50Q573 1461 617 1461Q645 1461 665.50 1493.50Q686 1526 686 1574L833 1530Z"  horiz-adv-x="1008" vert-adv-y="2048"  />

      
      <glyph glyph-name="unif2" unicode="&#xf2;" d="M59 551Q59 795 175.50 948.50Q292 1102 503 1102Q713 1102 831 948.50Q949 795 949 551L949 528Q949 284 831.50 131.50Q714-21 505-21Q293-21 176 131Q59 283 59 528L59 551M340 528Q340 377 377.50 288Q415 199 505 199Q591 199 629 288Q667 377 667 528L667 551Q667 700 629 790.50Q591 881 503 881Q415 881 377.50 790Q340 699 340 551L340 528M639 1278L393 1278L145 1538L148 1544L460 1544L639 1278Z"  horiz-adv-x="1008" vert-adv-y="2048"  />

      
      <glyph glyph-name="unif3" unicode="&#xf3;" d="M59 551Q59 795 175.50 948.50Q292 1102 503 1102Q713 1102 831 948.50Q949 795 949 551L949 528Q949 284 831.50 131.50Q714-21 505-21Q293-21 176 131Q59 283 59 528L59 551M340 528Q340 377 377.50 288Q415 199 505 199Q591 199 629 288Q667 377 667 528L667 551Q667 700 629 790.50Q591 881 503 881Q415 881 377.50 790Q340 699 340 551L340 528M544 1544L858 1544L861 1538L609 1278L365 1278L544 1544Z"  horiz-adv-x="1008" vert-adv-y="2048"  />

      
      <glyph glyph-name="unif4" unicode="&#xf4;" d="M59 551Q59 795 175.50 948.50Q292 1102 503 1102Q713 1102 831 948.50Q949 795 949 551L949 528Q949 284 831.50 131.50Q714-21 505-21Q293-21 176 131Q59 283 59 528L59 551M340 528Q340 377 377.50 288Q415 199 505 199Q591 199 629 288Q667 377 667 528L667 551Q667 700 629 790.50Q591 881 503 881Q415 881 377.50 790Q340 699 340 551L340 528M839 1292L839 1270L619 1270L503 1405L387 1270L171 1270L171 1295L424 1532L583 1532L839 1292Z"  horiz-adv-x="1008" vert-adv-y="2048"  />

      
      <glyph glyph-name="unif5" unicode="&#xf5;" d="M59 551Q59 795 175.50 948.50Q292 1102 503 1102Q713 1102 831 948.50Q949 795 949 551L949 528Q949 284 831.50 131.50Q714-21 505-21Q293-21 176 131Q59 283 59 528L59 551M340 528Q340 377 377.50 288Q415 199 505 199Q591 199 629 288Q667 377 667 528L667 551Q667 700 629 790.50Q591 881 503 881Q415 881 377.50 790Q340 699 340 551L340 528M833 1530Q833 1436 781 1369.50Q729 1303 650 1303Q589 1303 511 1347.50Q433 1392 389 1392Q360 1392 340.50 1359.50Q321 1327 321 1280L173 1322Q173 1414 225 1482Q277 1550 356 1550Q403 1550 488 1505.50Q573 1461 617 1461Q645 1461 665.50 1493.50Q686 1526 686 1574L833 1530Z"  horiz-adv-x="1008" vert-adv-y="2048"  />

      
      <glyph glyph-name="unif6" unicode="&#xf6;" d="M59 551Q59 795 175.50 948.50Q292 1102 503 1102Q713 1102 831 948.50Q949 795 949 551L949 528Q949 284 831.50 131.50Q714-21 505-21Q293-21 176 131Q59 283 59 528L59 551M340 528Q340 377 377.50 288Q415 199 505 199Q591 199 629 288Q667 377 667 528L667 551Q667 700 629 790.50Q591 881 503 881Q415 881 377.50 790Q340 699 340 551L340 528M855 1285L605 1285L605 1482L855 1482L855 1285M400 1285L149 1285L149 1482L400 1482L400 1285Z"  horiz-adv-x="1008" vert-adv-y="2048"  />

      
      <glyph glyph-name="unif7" unicode="&#xf7;" d="M950 580L59 580L59 796L950 796L950 580M644 973L365 973L365 1199L644 1199L644 973M644 169L365 169L365 396L644 396L644 169Z"  horiz-adv-x="1018" vert-adv-y="2048"  />

      
      <glyph glyph-name="unif8" unicode="&#xf8;" d="M59 551Q59 795 175.50 948.50Q292 1102 503 1102Q545 1102 583.50 1095Q622 1088 658 1076L717 1217L868 1217L778 1004Q861 931 905 813.50Q949 696 949 551L949 528Q949 284 831.50 131.50Q714-21 505-21Q464-21 427.50-15Q391-9 358 2L297-143L147-143L236 70Q149 141 104 259.50Q59 378 59 528L59 551M340 528Q340 477 343.50 435.50Q347 394 355 367L361 366L569 864Q554 872 537.50 876.50Q521 881 503 881Q415 881 377.50 790Q340 699 340 551L340 528M667 551Q667 594 663.50 632Q660 670 655 695L649 696L446 212Q458 205 472.50 202Q487 199 505 199Q591 199 629 288Q667 377 667 528L667 551Z"  horiz-adv-x="1009" vert-adv-y="2048"  />

      
      <glyph glyph-name="unif9" unicode="&#xf9;" d="M657 154Q614 70 549.50 24.50Q485-21 400-21Q254-21 170.50 96Q87 213 87 458L87 1082L369 1082L369 456Q369 311 397.50 255.50Q426 200 487 200Q536 200 573 218.50Q610 237 636 273L636 1082L919 1082L919 0L688 0L657 154M637 1257L391 1257L143 1517L146 1523L458 1523L637 1257Z"  horiz-adv-x="1008" vert-adv-y="2048"  />

      
      <glyph glyph-name="unifa" unicode="&#xfa;" d="M657 154Q614 70 549.50 24.50Q485-21 400-21Q254-21 170.50 96Q87 213 87 458L87 1082L369 1082L369 456Q369 311 397.50 255.50Q426 200 487 200Q536 200 573 218.50Q610 237 636 273L636 1082L919 1082L919 0L688 0L657 154M542 1523L856 1523L859 1517L607 1257L363 1257L542 1523Z"  horiz-adv-x="1008" vert-adv-y="2048"  />

      
      <glyph glyph-name="unifb" unicode="&#xfb;" d="M657 154Q614 70 549.50 24.50Q485-21 400-21Q254-21 170.50 96Q87 213 87 458L87 1082L369 1082L369 456Q369 311 397.50 255.50Q426 200 487 200Q536 200 573 218.50Q610 237 636 273L636 1082L919 1082L919 0L688 0L657 154M837 1272L837 1250L617 1250L501 1385L385 1250L169 1250L169 1275L422 1512L581 1512L837 1272Z"  horiz-adv-x="1008" vert-adv-y="2048"  />

      
      <glyph glyph-name="unifc" unicode="&#xfc;" d="M657 154Q614 70 549.50 24.50Q485-21 400-21Q254-21 170.50 96Q87 213 87 458L87 1082L369 1082L369 456Q369 311 397.50 255.50Q426 200 487 200Q536 200 573 218.50Q610 237 636 273L636 1082L919 1082L919 0L688 0L657 154M853 1264L603 1264L603 1461L853 1461L853 1264M398 1264L147 1264L147 1461L398 1461L398 1264Z"  horiz-adv-x="1008" vert-adv-y="2048"  />

      
      <glyph glyph-name="unifd" unicode="&#xfd;" d="M444 437L444 434L450 434L612 1082L915 1082L542-163Q501-280 432-358.50Q363-437 221-437Q187-437 160.50-431.50Q134-426 86-414L120-207Q131-209 141.50-211Q152-213 162-213Q224-213 256.50-179Q289-145 304-90L331-7L5 1082L308 1082L444 437M499 1523L813 1523L816 1517L564 1257L320 1257L499 1523Z"  horiz-adv-x="920" vert-adv-y="2048"  />

      
      <glyph glyph-name="unife" unicode="&#xfe;" d="M962 514Q962 272 866.50 125.50Q771-21 599-21Q530-21 477 6.50Q424 34 385 87L385-416L104-416L104 0L101 0L101 1560L383 1560L383 984Q422 1041 475.50 1071.50Q529 1102 597 1102Q771 1102 866.50 946Q962 790 962 535L962 514M680 535Q680 690 642 785Q604 880 524 880Q476 880 441 855.50Q406 831 385 787L385 277Q406 239 441 219Q476 199 525 199Q607 199 643.50 282.50Q680 366 680 514L680 535Z"  horiz-adv-x="1012" vert-adv-y="2048"  />

      
      <glyph glyph-name="uniff" unicode="&#xff;" d="M444 437L444 434L450 434L612 1082L915 1082L542-163Q501-280 432-358.50Q363-437 221-437Q187-437 160.50-431.50Q134-426 86-414L120-207Q131-209 141.50-211Q152-213 162-213Q224-213 256.50-179Q289-145 304-90L331-7L5 1082L308 1082L444 437M811 1264L561 1264L561 1461L811 1461L811 1264M356 1264L105 1264L105 1461L356 1461L356 1264Z"  horiz-adv-x="920" vert-adv-y="2048"  />

      
      <glyph glyph-name="uni0100" unicode="&#x0100;" d="M758 315L394 315L312 0L18 0L431 1456L723 1456L1136 0L841 0L758 315M452 537L700 537L579 999L573 999L452 537M903 1621L241 1621L241 1778L903 1778L903 1621Z"  horiz-adv-x="1141" vert-adv-y="2048"  />

      
      <glyph glyph-name="uni0101" unicode="&#x0101;" d="M634 0Q618 36 607.50 78Q597 120 592 164Q556 83 497.50 31Q439-21 354-21Q206-21 126.50 65.50Q47 152 47 303Q47 461 151.50 548.50Q256 636 464 636L587 636L587 726Q587 807 557 850.50Q527 894 468 894Q416 894 389 859Q362 824 362 759L90 760L88 766Q82 906 193 1004Q304 1102 486 1102Q657 1102 763 1004Q869 906 869 724L869 280Q869 204 880 136Q891 68 914 0L634 0M427 188Q483 188 527 222.50Q571 257 587 306L587 476L464 476Q393 476 360.50 430Q328 384 328 314Q328 258 355 223Q382 188 427 188M808 1300L146 1300L146 1457L808 1457L808 1300Z"  horiz-adv-x="957" vert-adv-y="2048"  />

      
      <glyph glyph-name="uni0102" unicode="&#x0102;" d="M758 315L394 315L312 0L18 0L431 1456L723 1456L1136 0L841 0L758 315M452 537L700 537L579 999L573 999L452 537M886 1895L888 1889Q892 1762 805 1681.50Q718 1601 573 1601Q425 1601 339 1681Q253 1761 258 1889L260 1895L465 1895Q465 1840 491 1806Q517 1772 573 1772Q627 1772 652.50 1806.50Q678 1841 678 1895L886 1895Z"  horiz-adv-x="1141" vert-adv-y="2048"  />

      
      <glyph glyph-name="uni0103" unicode="&#x0103;" d="M634 0Q618 36 607.50 78Q597 120 592 164Q556 83 497.50 31Q439-21 354-21Q206-21 126.50 65.50Q47 152 47 303Q47 461 151.50 548.50Q256 636 464 636L587 636L587 726Q587 807 557 850.50Q527 894 468 894Q416 894 389 859Q362 824 362 759L90 760L88 766Q82 906 193 1004Q304 1102 486 1102Q657 1102 763 1004Q869 906 869 724L869 280Q869 204 880 136Q891 68 914 0L634 0M427 188Q483 188 527 222.50Q571 257 587 306L587 476L464 476Q393 476 360.50 430Q328 384 328 314Q328 258 355 223Q382 188 427 188M791 1573L793 1567Q797 1440 710 1359.50Q623 1279 478 1279Q330 1279 244 1359Q158 1439 163 1567L165 1573L370 1573Q370 1518 396 1484Q422 1450 478 1450Q532 1450 557.50 1484.50Q583 1519 583 1573L791 1573Z"  horiz-adv-x="957" vert-adv-y="2048"  />

      
      <glyph glyph-name="uni0104" unicode="&#x0104;" d="M758 315L394 315L312 0L18 0L431 1456L723 1456L1136 0L841 0L758 315M452 537L700 537L579 999L573 999L452 537M1049 0Q1008-53 989-90Q970-127 970-176Q970-200 984-222Q998-244 1043-244Q1066-244 1084-238Q1102-232 1121-223L1153-371Q1122-389 1082-402Q1042-415 989-415Q890-415 826.50-360.50Q763-306 763-209Q763-133 801-65Q839 3 922 56L1049 0Z"  horiz-adv-x="1141" vert-adv-y="2048"  />

      
      <glyph glyph-name="uni0105" unicode="&#x0105;" d="M634 0Q618 36 607.50 78Q597 120 592 164Q556 83 497.50 31Q439-21 354-21Q206-21 126.50 65.50Q47 152 47 303Q47 461 151.50 548.50Q256 636 464 636L587 636L587 726Q587 807 557 850.50Q527 894 468 894Q416 894 389 859Q362 824 362 759L90 760L88 766Q82 906 193 1004Q304 1102 486 1102Q657 1102 763 1004Q869 906 869 724L869 280Q869 204 880 136Q891 68 914 0L634 0M427 188Q483 188 527 222.50Q571 257 587 306L587 476L464 476Q393 476 360.50 430Q328 384 328 314Q328 258 355 223Q382 188 427 188M826 0Q785-53 766-90Q747-127 747-176Q747-200 761-222Q775-244 820-244Q843-244 861-238Q879-232 898-223L930-371Q899-389 859-402Q819-415 766-415Q667-415 603.50-360.50Q540-306 540-209Q540-133 578-65Q616 3 699 56L826 0Z"  horiz-adv-x="957" vert-adv-y="2048"  />

      
      <glyph glyph-name="uni0106" unicode="&#x0106;" d="M1066 452L1068 446Q1072 212 948.50 95.50Q825-21 596-21Q361-21 223 117.50Q85 256 85 511L85 943Q85 1197 218.50 1337Q352 1477 579 1477Q818 1477 946 1361Q1074 1245 1070 1010L1068 1004L794 1004Q794 1144 744.50 1200Q695 1256 579 1256Q473 1256 420 1179.50Q367 1103 367 945L367 511Q367 352 424 275.50Q481 199 596 199Q701 199 747 254.50Q793 310 793 452L1066 452M632 1887L946 1887L949 1881L697 1621L453 1621L632 1887Z"  horiz-adv-x="1133" vert-adv-y="2048"  />

      
      <glyph glyph-name="uni0107" unicode="&#x0107;" d="M492 199Q552 199 583 243.50Q614 288 614 371L869 371L872 365Q875 196 766.50 87.50Q658-21 492-21Q280-21 166.50 131.50Q53 284 53 526L53 555Q53 795 166.50 948.50Q280 1102 491 1102Q667 1102 771 989.50Q875 877 872 686L870 681L614 681Q614 771 583 826Q552 881 491 881Q403 881 369 791.50Q335 702 335 555L335 526Q335 375 369 287Q403 199 492 199M505 1544L819 1544L822 1538L570 1278L326 1278L505 1544Z"  horiz-adv-x="921" vert-adv-y="2048"  />

      
      <glyph glyph-name="uni0108" unicode="&#x0108;" d="M1066 452L1068 446Q1072 212 948.50 95.50Q825-21 596-21Q361-21 223 117.50Q85 256 85 511L85 943Q85 1197 218.50 1337Q352 1477 579 1477Q818 1477 946 1361Q1074 1245 1070 1010L1068 1004L794 1004Q794 1144 744.50 1200Q695 1256 579 1256Q473 1256 420 1179.50Q367 1103 367 945L367 511Q367 352 424 275.50Q481 199 596 199Q701 199 747 254.50Q793 310 793 452L1066 452M927 1635L927 1613L707 1613L591 1748L475 1613L259 1613L259 1638L512 1875L671 1875L927 1635Z"  horiz-adv-x="1133" vert-adv-y="2048"  />

      
      <glyph glyph-name="uni0109" unicode="&#x0109;" d="M492 199Q552 199 583 243.50Q614 288 614 371L869 371L872 365Q875 196 766.50 87.50Q658-21 492-21Q280-21 166.50 131.50Q53 284 53 526L53 555Q53 795 166.50 948.50Q280 1102 491 1102Q667 1102 771 989.50Q875 877 872 686L870 681L614 681Q614 771 583 826Q552 881 491 881Q403 881 369 791.50Q335 702 335 555L335 526Q335 375 369 287Q403 199 492 199M800 1292L800 1270L580 1270L464 1405L348 1270L132 1270L132 1295L385 1532L544 1532L800 1292Z"  horiz-adv-x="921" vert-adv-y="2048"  />

      
      <glyph glyph-name="uni010A" unicode="&#x010A;" d="M1066 452L1068 446Q1072 212 948.50 95.50Q825-21 596-21Q361-21 223 117.50Q85 256 85 511L85 943Q85 1197 218.50 1337Q352 1477 579 1477Q818 1477 946 1361Q1074 1245 1070 1010L1068 1004L794 1004Q794 1144 744.50 1200Q695 1256 579 1256Q473 1256 420 1179.50Q367 1103 367 945L367 511Q367 352 424 275.50Q481 199 596 199Q701 199 747 254.50Q793 310 793 452L1066 452M748 1628L434 1628L434 1866L748 1866L748 1628Z"  horiz-adv-x="1133" vert-adv-y="2048"  />

      
      <glyph glyph-name="uni010B" unicode="&#x010B;" d="M492 199Q552 199 583 243.50Q614 288 614 371L869 371L872 365Q875 196 766.50 87.50Q658-21 492-21Q280-21 166.50 131.50Q53 284 53 526L53 555Q53 795 166.50 948.50Q280 1102 491 1102Q667 1102 771 989.50Q875 877 872 686L870 681L614 681Q614 771 583 826Q552 881 491 881Q403 881 369 791.50Q335 702 335 555L335 526Q335 375 369 287Q403 199 492 199M621 1285L307 1285L307 1523L621 1523L621 1285Z"  horiz-adv-x="921" vert-adv-y="2048"  />

      
      <glyph glyph-name="uni010C" unicode="&#x010C;" d="M1066 452L1068 446Q1072 212 948.50 95.50Q825-21 596-21Q361-21 223 117.50Q85 256 85 511L85 943Q85 1197 218.50 1337Q352 1477 579 1477Q818 1477 946 1361Q1074 1245 1070 1010L1068 1004L794 1004Q794 1144 744.50 1200Q695 1256 579 1256Q473 1256 420 1179.50Q367 1103 367 945L367 511Q367 352 424 275.50Q481 199 596 199Q701 199 747 254.50Q793 310 793 452L1066 452M591 1763L682 1892L936 1892L936 1875L686 1623L495 1623L244 1876L244 1892L499 1892L591 1763Z"  horiz-adv-x="1133" vert-adv-y="2048"  />

      
      <glyph glyph-name="uni010D" unicode="&#x010D;" d="M492 199Q552 199 583 243.50Q614 288 614 371L869 371L872 365Q875 196 766.50 87.50Q658-21 492-21Q280-21 166.50 131.50Q53 284 53 526L53 555Q53 795 166.50 948.50Q280 1102 491 1102Q667 1102 771 989.50Q875 877 872 686L870 681L614 681Q614 771 583 826Q552 881 491 881Q403 881 369 791.50Q335 702 335 555L335 526Q335 375 369 287Q403 199 492 199M464 1420L555 1549L809 1549L809 1532L559 1280L368 1280L117 1533L117 1549L372 1549L464 1420Z"  horiz-adv-x="921" vert-adv-y="2048"  />

      
      <glyph glyph-name="uni010E" unicode="&#x010E;" d="M112 0L112 1456L561 1456Q789 1456 938 1285.50Q1087 1115 1087 848L1087 607Q1087 339 938 169.50Q789 0 561 0L112 0M394 1235L394 220L561 220Q670 220 737 328Q804 436 804 607L804 850Q804 1019 737 1127Q670 1235 561 1235L394 1235M510 1742L601 1871L855 1871L855 1854L605 1602L414 1602L163 1855L163 1871L418 1871L510 1742Z"  horiz-adv-x="1173" vert-adv-y="2048"  />

      
      <glyph glyph-name="uni010F" unicode="&#x010F;" d="M56 535Q56 790 151 946Q246 1102 420 1102Q485 1102 537.50 1071Q590 1040 631 983L631 1560L913 1560L913 0L672 0L651 122Q608 52 550 15.50Q492-21 418-21Q246-21 151 125.50Q56 272 56 514L56 535M336 514Q336 367 372 283.50Q408 200 491 200Q537 200 572.50 221.50Q608 243 631 285L631 782Q608 828 572 854Q536 880 492 880Q410 880 373 785Q336 690 336 535L336 514M1204 1400L1085 1170L971 1170L1025 1408L1025 1559L1204 1559L1204 1400Z"  horiz-adv-x="1008" vert-adv-y="2048"  />

      
      <glyph glyph-name="uni0110" unicode="&#x0110;" d="M112 0L112 655L-1 655L-1 827L112 827L112 1456L561 1456Q789 1456 938 1285.50Q1087 1115 1087 848L1087 607Q1087 339 938 169.50Q789 0 561 0L112 0M587 655L394 655L394 220L561 220Q670 220 737 328Q804 436 804 607L804 850Q804 1019 737 1127Q670 1235 561 1235L394 1235L394 827L587 827L587 655Z"  horiz-adv-x="1173" vert-adv-y="2048"  />

      
      <glyph glyph-name="uni0111" unicode="&#x0111;" d="M1029 1223L913 1223L913 0L672 0L651 122Q608 52 550 15.50Q492-21 418-21Q246-21 151 125.50Q56 272 56 514L56 535Q56 790 151 946Q246 1102 420 1102Q485 1102 537.50 1071Q590 1040 631 983L631 1223L441 1223L441 1395L631 1395L631 1560L913 1560L913 1395L1029 1395L1029 1223M336 514Q336 367 372 283.50Q408 200 491 200Q537 200 572.50 221.50Q608 243 631 285L631 782Q608 828 572 854Q536 880 492 880Q410 880 373 785Q336 690 336 535L336 514Z"  horiz-adv-x="1008" vert-adv-y="2048"  />

      
      <glyph glyph-name="uni0112" unicode="&#x0112;" d="M839 643L394 643L394 220L927 220L927 0L112 0L112 1456L925 1456L925 1235L394 1235L394 863L839 863L839 643M852 1621L190 1621L190 1778L852 1778L852 1621Z"  horiz-adv-x="994" vert-adv-y="2048"  />

      
      <glyph glyph-name="uni0113" unicode="&#x0113;" d="M508-21Q294-21 176 127Q58 275 58 508L58 549Q58 794 171.50 948Q285 1102 491 1102Q682 1102 784 971Q886 840 886 615L886 461L340 461Q347 341 394.50 270Q442 199 541 199Q625 199 681.50 218.50Q738 238 803 280L876 104Q818 51 719.50 15Q621-21 508-21M491 881Q420 881 385.50 818.50Q351 756 342 647L610 647L610 672Q610 771 582.50 826Q555 881 491 881M801 1300L139 1300L139 1457L801 1457L801 1300Z"  horiz-adv-x="937" vert-adv-y="2048"  />

      
      <glyph glyph-name="uni0114" unicode="&#x0114;" d="M839 643L394 643L394 220L927 220L927 0L112 0L112 1456L925 1456L925 1235L394 1235L394 863L839 863L839 643M835 1895L837 1889Q841 1762 754 1681.50Q667 1601 522 1601Q374 1601 288 1681Q202 1761 207 1889L209 1895L414 1895Q414 1840 440 1806Q466 1772 522 1772Q576 1772 601.50 1806.50Q627 1841 627 1895L835 1895Z"  horiz-adv-x="994" vert-adv-y="2048"  />

      
      <glyph glyph-name="uni0115" unicode="&#x0115;" d="M508-21Q294-21 176 127Q58 275 58 508L58 549Q58 794 171.50 948Q285 1102 491 1102Q682 1102 784 971Q886 840 886 615L886 461L340 461Q347 341 394.50 270Q442 199 541 199Q625 199 681.50 218.50Q738 238 803 280L876 104Q818 51 719.50 15Q621-21 508-21M491 881Q420 881 385.50 818.50Q351 756 342 647L610 647L610 672Q610 771 582.50 826Q555 881 491 881M783 1574L785 1568Q789 1441 702 1360.50Q615 1280 470 1280Q322 1280 236 1360Q150 1440 155 1568L157 1574L362 1574Q362 1519 388 1485Q414 1451 470 1451Q524 1451 549.50 1485.50Q575 1520 575 1574L783 1574Z"  horiz-adv-x="937" vert-adv-y="2048"  />

      
      <glyph glyph-name="uni0116" unicode="&#x0116;" d="M839 643L394 643L394 220L927 220L927 0L112 0L112 1456L925 1456L925 1235L394 1235L394 863L839 863L839 643M678 1607L364 1607L364 1845L678 1845L678 1607Z"  horiz-adv-x="994" vert-adv-y="2048"  />

      
      <glyph glyph-name="uni0117" unicode="&#x0117;" d="M508-21Q294-21 176 127Q58 275 58 508L58 549Q58 794 171.50 948Q285 1102 491 1102Q682 1102 784 971Q886 840 886 615L886 461L340 461Q347 341 394.50 270Q442 199 541 199Q625 199 681.50 218.50Q738 238 803 280L876 104Q818 51 719.50 15Q621-21 508-21M491 881Q420 881 385.50 818.50Q351 756 342 647L610 647L610 672Q610 771 582.50 826Q555 881 491 881M626 1286L312 1286L312 1524L626 1524L626 1286Z"  horiz-adv-x="937" vert-adv-y="2048"  />

      
      <glyph glyph-name="uni0118" unicode="&#x0118;" d="M839 643L394 643L394 220L927 220L927 0L112 0L112 1456L925 1456L925 1235L394 1235L394 863L839 863L839 643M588 0Q547-53 528-90Q509-127 509-176Q509-200 523-222Q537-244 582-244Q605-244 623-238Q641-232 660-223L692-371Q661-389 621-402Q581-415 528-415Q429-415 365.50-360.50Q302-306 302-209Q302-133 340-65Q378 3 461 56L588 0Z"  horiz-adv-x="994" vert-adv-y="2048"  />

      
      <glyph glyph-name="uni0119" unicode="&#x0119;" d="M508-21Q294-21 176 127Q58 275 58 508L58 549Q58 794 171.50 948Q285 1102 491 1102Q682 1102 784 971Q886 840 886 615L886 461L340 461Q347 341 394.50 270Q442 199 541 199Q625 199 681.50 218.50Q738 238 803 280L876 104Q818 51 719.50 15Q621-21 508-21M491 881Q420 881 385.50 818.50Q351 756 342 647L610 647L610 672Q610 771 582.50 826Q555 881 491 881M762 41Q721-12 702-49Q683-86 683-135Q683-159 697-181Q711-203 756-203Q779-203 797-197Q815-191 834-182L866-330Q835-348 795-361Q755-374 702-374Q603-374 539.50-319.50Q476-265 476-168Q476-92 514-24Q552 44 635 97L762 41Z"  horiz-adv-x="937" vert-adv-y="2048"  />

      
      <glyph glyph-name="uni011A" unicode="&#x011A;" d="M839 643L394 643L394 220L927 220L927 0L112 0L112 1456L925 1456L925 1235L394 1235L394 863L839 863L839 643M521 1742L612 1871L866 1871L866 1854L616 1602L425 1602L174 1855L174 1871L429 1871L521 1742Z"  horiz-adv-x="994" vert-adv-y="2048"  />

      
      <glyph glyph-name="uni011B" unicode="&#x011B;" d="M508-21Q294-21 176 127Q58 275 58 508L58 549Q58 794 171.50 948Q285 1102 491 1102Q682 1102 784 971Q886 840 886 615L886 461L340 461Q347 341 394.50 270Q442 199 541 199Q625 199 681.50 218.50Q738 238 803 280L876 104Q818 51 719.50 15Q621-21 508-21M491 881Q420 881 385.50 818.50Q351 756 342 647L610 647L610 672Q610 771 582.50 826Q555 881 491 881M469 1421L560 1550L814 1550L814 1533L564 1281L373 1281L122 1534L122 1550L377 1550L469 1421Z"  horiz-adv-x="937" vert-adv-y="2048"  />

      
      <glyph glyph-name="uni011C" unicode="&#x011C;" d="M1087 192Q1025 105 907.50 42Q790-21 604-21Q368-21 225.50 116.50Q83 254 83 507L83 949Q83 1201 221.50 1339Q360 1477 588 1477Q826 1477 947 1364.50Q1068 1252 1064 1044L1062 1038L797 1038Q797 1152 747 1204Q697 1256 596 1256Q487 1256 426 1180Q365 1104 365 951L365 507Q365 351 427 275Q489 199 604 199Q686 199 733 218.50Q780 238 805 270L805 564L583 564L583 759L1087 759L1087 192M924 1635L924 1613L704 1613L588 1748L472 1613L256 1613L256 1638L509 1875L668 1875L924 1635Z"  horiz-adv-x="1178" vert-adv-y="2048"  />

      
      <glyph glyph-name="uni011D" unicode="&#x011D;" d="M57 535Q57 790 152 946Q247 1102 421 1102Q496 1102 552.50 1064.50Q609 1027 651 958L670 1082L915 1082L915 6Q915-205 791.50-321Q668-437 449-437Q377-437 297.50-415Q218-393 148-355L195-141Q255-173 315-189Q375-205 447-205Q541-205 586.50-153.50Q632-102 632 7L632 87Q591 34 538.50 6.50Q486-21 419-21Q247-21 152 125.50Q57 272 57 514L57 535M339 514Q339 366 374 283Q409 200 493 200Q541 200 575.50 220Q610 240 632 278L632 790Q609 833 574.50 856.50Q540 880 494 880Q412 880 375.50 785.50Q339 691 339 535L339 514M820 1292L820 1270L600 1270L484 1405L368 1270L152 1270L152 1295L405 1532L564 1532L820 1292Z"  horiz-adv-x="1008" vert-adv-y="2048"  />

      
      <glyph glyph-name="uni011E" unicode="&#x011E;" d="M1087 192Q1025 105 907.50 42Q790-21 604-21Q368-21 225.50 116.50Q83 254 83 507L83 949Q83 1201 221.50 1339Q360 1477 588 1477Q826 1477 947 1364.50Q1068 1252 1064 1044L1062 1038L797 1038Q797 1152 747 1204Q697 1256 596 1256Q487 1256 426 1180Q365 1104 365 951L365 507Q365 351 427 275Q489 199 604 199Q686 199 733 218.50Q780 238 805 270L805 564L583 564L583 759L1087 759L1087 192M902 1916L904 1910Q908 1783 821 1702.50Q734 1622 589 1622Q441 1622 355 1702Q269 1782 274 1910L276 1916L481 1916Q481 1861 507 1827Q533 1793 589 1793Q643 1793 668.50 1827.50Q694 1862 694 1916L902 1916Z"  horiz-adv-x="1178" vert-adv-y="2048"  />

      
      <glyph glyph-name="uni011F" unicode="&#x011F;" d="M57 535Q57 790 152 946Q247 1102 421 1102Q496 1102 552.50 1064.50Q609 1027 651 958L670 1082L915 1082L915 6Q915-205 791.50-321Q668-437 449-437Q377-437 297.50-415Q218-393 148-355L195-141Q255-173 315-189Q375-205 447-205Q541-205 586.50-153.50Q632-102 632 7L632 87Q591 34 538.50 6.50Q486-21 419-21Q247-21 152 125.50Q57 272 57 514L57 535M339 514Q339 366 374 283Q409 200 493 200Q541 200 575.50 220Q610 240 632 278L632 790Q609 833 574.50 856.50Q540 880 494 880Q412 880 375.50 785.50Q339 691 339 535L339 514M798 1573L800 1567Q804 1440 717 1359.50Q630 1279 485 1279Q337 1279 251 1359Q165 1439 170 1567L172 1573L377 1573Q377 1518 403 1484Q429 1450 485 1450Q539 1450 564.50 1484.50Q590 1519 590 1573L798 1573Z"  horiz-adv-x="1008" vert-adv-y="2048"  />

      
      <glyph glyph-name="uni0120" unicode="&#x0120;" d="M1087 192Q1025 105 907.50 42Q790-21 604-21Q368-21 225.50 116.50Q83 254 83 507L83 949Q83 1201 221.50 1339Q360 1477 588 1477Q826 1477 947 1364.50Q1068 1252 1064 1044L1062 1038L797 1038Q797 1152 747 1204Q697 1256 596 1256Q487 1256 426 1180Q365 1104 365 951L365 507Q365 351 427 275Q489 199 604 199Q686 199 733 218.50Q780 238 805 270L805 564L583 564L583 759L1087 759L1087 192M745 1628L431 1628L431 1866L745 1866L745 1628Z"  horiz-adv-x="1178" vert-adv-y="2048"  />

      
      <glyph glyph-name="uni0121" unicode="&#x0121;" d="M57 535Q57 790 152 946Q247 1102 421 1102Q496 1102 552.50 1064.50Q609 1027 651 958L670 1082L915 1082L915 6Q915-205 791.50-321Q668-437 449-437Q377-437 297.50-415Q218-393 148-355L195-141Q255-173 315-189Q375-205 447-205Q541-205 586.50-153.50Q632-102 632 7L632 87Q591 34 538.50 6.50Q486-21 419-21Q247-21 152 125.50Q57 272 57 514L57 535M339 514Q339 366 374 283Q409 200 493 200Q541 200 575.50 220Q610 240 632 278L632 790Q609 833 574.50 856.50Q540 880 494 880Q412 880 375.50 785.50Q339 691 339 535L339 514M641 1285L327 1285L327 1523L641 1523L641 1285Z"  horiz-adv-x="1008" vert-adv-y="2048"  />

      
      <glyph glyph-name="uni0122" unicode="&#x0122;" d="M1087 192Q1025 105 907.50 42Q790-21 604-21Q368-21 225.50 116.50Q83 254 83 507L83 949Q83 1201 221.50 1339Q360 1477 588 1477Q826 1477 947 1364.50Q1068 1252 1064 1044L1062 1038L797 1038Q797 1152 747 1204Q697 1256 596 1256Q487 1256 426 1180Q365 1104 365 951L365 507Q365 351 427 275Q489 199 604 199Q686 199 733 218.50Q780 238 805 270L805 564L583 564L583 759L1087 759L1087 192M682-267L563-497L449-497L503-259L503-108L682-108L682-267Z"  horiz-adv-x="1178" vert-adv-y="2048"  />

      
      <glyph glyph-name="uni0123" unicode="&#x0123;" d="M57 535Q57 790 152 946Q247 1102 421 1102Q496 1102 552.50 1064.50Q609 1027 651 958L670 1082L915 1082L915 6Q915-205 791.50-321Q668-437 449-437Q377-437 297.50-415Q218-393 148-355L195-141Q255-173 315-189Q375-205 447-205Q541-205 586.50-153.50Q632-102 632 7L632 87Q591 34 538.50 6.50Q486-21 419-21Q247-21 152 125.50Q57 272 57 514L57 535M339 514Q339 366 374 283Q409 200 493 200Q541 200 575.50 220Q610 240 632 278L632 790Q609 833 574.50 856.50Q540 880 494 880Q412 880 375.50 785.50Q339 691 339 535L339 514M366 1436L469 1692L623 1692L591 1428L591 1261L366 1261L366 1436Z"  horiz-adv-x="1008" vert-adv-y="2048"  />

      
      <glyph glyph-name="uni0124" unicode="&#x0124;" d="M1144 0L863 0L863 607L394 607L394 0L112 0L112 1456L394 1456L394 827L863 827L863 1456L1144 1456L1144 0M964 1614L964 1592L744 1592L628 1727L512 1592L296 1592L296 1617L549 1854L708 1854L964 1614Z"  horiz-adv-x="1257" vert-adv-y="2048"  />

      
      <glyph glyph-name="uni0125" unicode="&#x0125;" d="M368 951Q411 1023 471.50 1062.50Q532 1102 605 1102Q750 1102 834 988Q918 874 918 637L918 0L636 0L636 639Q636 773 606.50 826.50Q577 880 515 880Q466 880 429.50 860.50Q393 841 368 805L368 0L87 0L87 1560L368 1560L368 951M793 1615L793 1593L573 1593L457 1728L341 1593L125 1593L125 1618L378 1855L537 1855L793 1615Z"  horiz-adv-x="1008" vert-adv-y="2048"  />

      
      <glyph glyph-name="uni0126" unicode="&#x0126;" d="M1152 1193L1252 1193L1252 1029L1152 1029L1152 0L871 0L871 607L402 607L402 0L120 0L120 1029L19 1029L19 1193L120 1193L120 1456L402 1456L402 1193L871 1193L871 1456L1152 1456L1152 1193M402 827L871 827L871 1029L402 1029L402 827Z"  horiz-adv-x="1261" vert-adv-y="2048"  />

      
      <glyph glyph-name="uni0127" unicode="&#x0127;" d="M579 1220L368 1220L368 951Q411 1023 471.50 1062.50Q532 1102 605 1102Q750 1102 834 988Q918 874 918 637L918 0L636 0L636 639Q636 773 606.50 826.50Q577 880 515 880Q466 880 429.50 860.50Q393 841 368 805L368 0L87 0L87 1220L-9 1220L-9 1392L87 1392L87 1560L368 1560L368 1392L579 1392L579 1220Z"  horiz-adv-x="1008" vert-adv-y="2048"  />

      
      <glyph glyph-name="uni0128" unicode="&#x0128;" d="M409 0L128 0L128 1456L409 1456L409 0M600 1852Q600 1758 548 1691.50Q496 1625 417 1625Q356 1625 278 1669.50Q200 1714 156 1714Q127 1714 107.50 1681.50Q88 1649 88 1602L-60 1644Q-60 1736-8 1804Q44 1872 123 1872Q170 1872 255 1827.50Q340 1783 384 1783Q412 1783 432.50 1815.50Q453 1848 453 1896L600 1852Z"  horiz-adv-x="538" vert-adv-y="2048"  />

      
      <glyph glyph-name="uni0129" unicode="&#x0129;" d="M397 0L114 0L114 1082L397 1082L397 0M588 1509Q588 1415 536 1348.50Q484 1282 405 1282Q344 1282 266 1326.50Q188 1371 144 1371Q115 1371 95.50 1338.50Q76 1306 76 1259L-72 1301Q-72 1393-20 1461Q32 1529 111 1529Q158 1529 243 1484.50Q328 1440 372 1440Q400 1440 420.50 1472.50Q441 1505 441 1553L588 1509Z"  horiz-adv-x="514" vert-adv-y="2048"  />

      
      <glyph glyph-name="uni012A" unicode="&#x012A;" d="M409 0L128 0L128 1456L409 1456L409 0M601 1621L-61 1621L-61 1778L601 1778L601 1621Z"  horiz-adv-x="538" vert-adv-y="2048"  />

      
      <glyph glyph-name="uni012B" unicode="&#x012B;" d="M397 0L114 0L114 1082L397 1082L397 0M589 1279L-73 1279L-73 1436L589 1436L589 1279Z"  horiz-adv-x="514" vert-adv-y="2048"  />

      
      <glyph glyph-name="uni012C" unicode="&#x012C;" d="M409 0L128 0L128 1456L409 1456L409 0M584 1895L586 1889Q590 1762 503 1681.50Q416 1601 271 1601Q123 1601 37 1681Q-49 1761-44 1889L-42 1895L163 1895Q163 1840 189 1806Q215 1772 271 1772Q325 1772 350.50 1806.50Q376 1841 376 1895L584 1895Z"  horiz-adv-x="538" vert-adv-y="2048"  />

      
      <glyph glyph-name="uni012D" unicode="&#x012D;" d="M397 0L114 0L114 1082L397 1082L397 0M572 1552L574 1546Q578 1419 491 1338.50Q404 1258 259 1258Q111 1258 25 1338Q-61 1418-56 1546L-54 1552L151 1552Q151 1497 177 1463Q203 1429 259 1429Q313 1429 338.50 1463.50Q364 1498 364 1552L572 1552Z"  horiz-adv-x="514" vert-adv-y="2048"  />

      
      <glyph glyph-name="uni012E" unicode="&#x012E;" d="M409 0L128 0L128 1456L409 1456L409 0M322 0Q281-53 262-90Q243-127 243-176Q243-200 257-222Q271-244 316-244Q339-244 357-238Q375-232 394-223L426-371Q395-389 355-402Q315-415 262-415Q163-415 99.50-360.50Q36-306 36-209Q36-133 74-65Q112 3 195 56L322 0Z"  horiz-adv-x="538" vert-adv-y="2048"  />

      
      <glyph glyph-name="uni012F" unicode="&#x012F;" d="M389 0L107 0L107 1082L389 1082L389 0M389 1345L107 1345L107 1560L389 1560L389 1345M302 0Q261-53 242-90Q223-127 223-176Q223-200 237-222Q251-244 296-244Q319-244 337-238Q355-232 374-223L406-371Q375-389 335-402Q295-415 242-415Q143-415 79.50-360.50Q16-306 16-209Q16-133 54-65Q92 3 175 56L302 0Z"  horiz-adv-x="497" vert-adv-y="2048"  />

      
      <glyph glyph-name="uni0130" unicode="&#x0130;" d="M409 0L128 0L128 1456L409 1456L409 0M427 1607L113 1607L113 1845L427 1845L427 1607Z"  horiz-adv-x="538" vert-adv-y="2048"  />

      
      <glyph glyph-name="uni0131" unicode="&#x0131;" d="M397 0L114 0L114 1082L397 1082L397 0Z"  horiz-adv-x="514" vert-adv-y="2048"  />

      
      <glyph glyph-name="uni0132" unicode="&#x0132;" d="M409 0L128 0L128 1456L409 1456L409 0M1140 1456L1422 1456L1422 453Q1422 236 1305.50 107.50Q1189-21 1006-21Q800-21 681 93Q562 207 566 426L569 432L842 432Q842 313 887.50 256Q933 199 1006 199Q1065 199 1102.50 267Q1140 335 1140 453L1140 1456Z"  horiz-adv-x="1532" vert-adv-y="2048"  />

      
      <glyph glyph-name="uni0133" unicode="&#x0133;" d="M389 0L107 0L107 1082L389 1082L389 0M389 1345L107 1345L107 1560L389 1560L389 1345M892 1082L892-37Q892-228 801-332.50Q710-437 549-437Q514-437 485-432.50Q456-428 420-419L433-202Q456-208 474-211.50Q492-215 514-215Q559-215 584.50-170Q610-125 610-37L610 1082L892 1082M887 1347L604 1347L604 1560L887 1560L887 1347Z"  horiz-adv-x="986" vert-adv-y="2048"  />

      
      <glyph glyph-name="uni0134" unicode="&#x0134;" d="M602 1456L884 1456L884 453Q884 236 767.50 107.50Q651-21 468-21Q262-21 143 93Q24 207 28 426L31 432L304 432Q304 313 349.50 256Q395 199 468 199Q527 199 564.50 267Q602 335 602 453L602 1456M1062 1608L1062 1586L842 1586L726 1721L610 1586L394 1586L394 1611L647 1848L806 1848L1062 1608Z"  horiz-adv-x="994" vert-adv-y="2048"  />

      
      <glyph glyph-name="uni0135" unicode="&#x0135;" d="M411 1082L411-37Q411-228 320-332.50Q229-437 68-437Q32-437 3.50-432.50Q-25-428-61-419L-48-203Q-25-209-7-212.50Q11-216 35-216Q80-216 105-169.50Q130-123 130-37L130 1082L411 1082M585 1265L585 1243L365 1243L249 1378L133 1243L-83 1243L-83 1268L170 1505L329 1505L585 1265Z"  horiz-adv-x="529" vert-adv-y="2048"  />

      
      <glyph glyph-name="uni0136" unicode="&#x0136;" d="M471 611L394 611L394 0L112 0L112 1456L394 1456L394 860L452 860L761 1456L1111 1456L691 791L1142 0L782 0L471 611M647-257L528-487L414-487L468-249L468-98L647-98L647-257Z"  horiz-adv-x="1142" vert-adv-y="2048"  />

      
      <glyph glyph-name="uni0137" unicode="&#x0137;" d="M427 454L376 454L376 0L94 0L94 1560L376 1560L376 672L422 672L618 1082L943 1082L649 594L987 0L664 0L427 454M582-256L463-486L349-486L403-248L403-97L582-97L582-256Z"  horiz-adv-x="973" vert-adv-y="2048"  />

      
      <glyph glyph-name="uni0138" unicode="&#x0138;" d="M483 407L393 407L393 0L112 0L112 1082L393 1082L393 669L461 669L670 1082L1028 1082L709 590L1036 0L675 0L483 407Z"  horiz-adv-x="1073" vert-adv-y="2048"  />

      
      <glyph glyph-name="uni0139" unicode="&#x0139;" d="M394 220L937 220L937 0L112 0L112 1456L394 1456L394 220M296 1847L610 1847L613 1841L361 1581L117 1581L296 1847Z"  horiz-adv-x="994" vert-adv-y="2048"  />

      
      <glyph glyph-name="uni013A" unicode="&#x013A;" d="M389 0L107 0L107 1560L389 1560L389 0M289 1895L603 1895L606 1889L354 1629L110 1629L289 1895Z"  horiz-adv-x="497" vert-adv-y="2048"  />

      
      <glyph glyph-name="uni013B" unicode="&#x013B;" d="M394 220L937 220L937 0L112 0L112 1456L394 1456L394 220M606-256L487-486L373-486L427-248L427-97L606-97L606-256Z"  horiz-adv-x="994" vert-adv-y="2048"  />

      
      <glyph glyph-name="uni013C" unicode="&#x013C;" d="M389 0L107 0L107 1560L389 1560L389 0M330-256L211-486L97-486L151-248L151-97L330-97L330-256Z"  horiz-adv-x="497" vert-adv-y="2048"  />

      
      <glyph glyph-name="uni013D" unicode="&#x013D;" d="M394 220L937 220L937 0L112 0L112 1456L394 1456L394 220M775 1299L656 1069L542 1069L596 1307L596 1458L775 1458L775 1299Z"  horiz-adv-x="994" vert-adv-y="2048"  />

      
      <glyph glyph-name="uni013E" unicode="&#x013E;" d="M389 0L107 0L107 1560L389 1560L389 0M694 1400L575 1170L461 1170L515 1408L515 1559L694 1559L694 1400Z"  horiz-adv-x="497" vert-adv-y="2048"  />

      
      <glyph glyph-name="uni013F" unicode="&#x013F;" d="M394 220L937 220L937 0L112 0L112 1456L394 1456L394 220M834 679L520 679L520 917L834 917L834 679Z"  horiz-adv-x="994" vert-adv-y="2048"  />

      
      <glyph glyph-name="uni0140" unicode="&#x0140;" d="M389 0L107 0L107 1560L389 1560L389 0M661 630L347 630L347 868L661 868L661 630Z"  horiz-adv-x="497" vert-adv-y="2048"  />

      
      </font>
</defs>
</svg>
